<?xml version="1.0" encoding="UTF-8"?>
<svg id="_Ícones" data-name="Ícones" xmlns="http://www.w3.org/2000/svg" viewBox="0 0 1030 278">
  <defs>
    <style>
      .cls-1 {
        fill: #ffdf00;
      }
    </style>
  </defs>
  <path class="cls-1" d="M503.95,24.63c21.23,28.64,10.6,69.62-20.9,69.56,0,0,21.22-21.32,2.48-44.62,0,0-3.96,25.63-31.42,11.53-27.46-14.09-35.51-31.97-63.5-19.84-23.27,10.1-45.17,13.18-72.65,70.84,12.61-11.48,30.1-20.32,54.35-22.27,82.02-6.66,107.56,81.14,107.56,81.14,0,0-45.35,20.99-98.11-26.43,0,0,12.42,31.68-20.48,22.95-32.9-8.69-45.66-31.3-75.74,14.32,0,0-37.38-49.1-11.45-92.47,25.36-42.44-7.04-72.76-9.74-74.01,3.23.67,55.35,9.42,50.82,67.82-.69,8.82-.88,15.52-.7,20.54,15.36-38.15,46.77-86.31,109.47-100.37,20.22-4.53,58.77-7.33,80.01,21.31ZM263.71,183.49c-109.5,31-131.95-16.06-131.95-16.06-21.95-46.1-77.55-9.89-49.99,24.67-16.91-2.49-34.53-1.47-50.35,6.56-52.81,26.79-23.06,78.88-23.06,78.88,67.02-67.23,148.52-54.6,148.52-54.6,0,0-.4-.28-1.14-.77,57.59.48,107.97-38.68,107.97-38.68ZM264.35,15.33c-.06-.03-.11-.05-.14-.05-.06,0,0,.02.14.05ZM244.35,165.76c-7.24-30.61-48.1-63.41-53.59-33.79-5.47,29.63,53.59,33.79,53.59,33.79ZM765.66,15.33c-3.22.66-55.35,9.41-50.82,67.82.69,8.82.88,15.51.7,20.53-15.36-38.15-46.78-86.3-109.47-100.37-20.22-4.53-58.76-7.33-80,21.31-21.23,28.64-10.6,69.62,20.9,69.56,0,0-21.22-21.32-2.49-44.62,0,0,3.97,25.63,31.42,11.53,27.47-14.09,35.52-31.97,63.51-19.84,23.26,10.1,45.16,13.18,72.65,70.84-12.61-11.48-30.1-20.32-54.35-22.27-82.02-6.66-107.56,81.14-107.56,81.14,0,0,45.35,20.99,98.11-26.43,0,0-12.42,31.68,20.47,22.95,32.9-8.69,45.66-31.3,75.75,14.32,0,0,37.38-49.1,11.45-92.47-25.36-42.45,7.05-72.76,9.74-74.01ZM765.8,15.28s-.08.02-.14.05c.14-.03.2-.04.14-.05ZM839.24,131.97c-5.48-29.62-46.34,3.18-53.58,33.79,0,0,59.06-4.16,53.58-33.79ZM998.59,198.66c-15.82-8.03-33.44-9.06-50.35-6.57,27.56-34.56-28.05-70.77-49.99-24.67,0,0-22.45,47.06-131.96,16.06,0,0,50.38,39.16,107.96,38.68-.74.49-1.14.77-1.14.77,0,0,81.51-12.63,148.52,54.6,0,0,29.75-52.1-23.05-78.88Z"/>
</svg>