<?xml version="1.0" encoding="UTF-8"?>
<svg id="_Ícones" data-name="Ícones" xmlns="http://www.w3.org/2000/svg" viewBox="0 0 730 315">
  <defs>
    <style>
      .cls-1 {
        fill: #472d0a;
      }
    </style>
  </defs>
  <path class="cls-1" d="M621.62,110.4c-9.35,139.86-157.1,187.33-171.09,191.52l-.54.31s-.01-.05-.04-.14c-.32.09-.48.14-.48.14.15-.08.3-.17.45-.25-.93-3.72-11.24-48.73,26.28-71.62,38.29-23.36,25.08-61.4,23.45-63.56,2.32,1.91,40.48,30.96,12.16,75.94-12.58,19.99-13.98,27.09-11.45,28.65,70.35-47.82,69.91-77.17,78.43-109.72,10.2-39.02-14.83-45.94-38.82-78.99-23.99-33.05,8.72-43.43,8.72-43.43-34.26-19.79-57.84,12.28-57.84,12.28-6.48-41.18,44.96-63.38,86.71-41.41,41.74,21.98,45.89,72.95,44.06,100.28ZM499.64,166.79s-.07-.09-.09-.1c-.05-.02,0,.01.09.1ZM387.98,298.74c6,26.68,56.76,9.07,56.76,9.07-16.97-22.97-62.77-35.75-56.76-9.07ZM677.11,8.16c24.47,82.59-20.99,142.04-20.99,142.04,0,0,72.25-35.73,73.84-89.44,1.59-53.71-52.86-52.6-52.86-52.6ZM253.8,230.35c-38.29-23.36-25.08-61.4-23.45-63.56-2.32,1.91-40.48,30.96-12.16,75.94,12.58,19.99,13.98,27.09,11.45,28.65-70.35-47.82-69.91-77.17-78.43-109.72-10.2-39.02,14.83-45.94,38.82-78.99,23.99-33.05-8.72-43.43-8.72-43.43,34.26-19.79,57.84,12.28,57.84,12.28,6.48-41.18-44.96-63.38-86.71-41.41-41.74,21.98-45.89,72.95-44.06,100.28,9.35,139.86,157.1,187.33,171.09,191.52l.54.31s.01-.05.04-.14c.32.09.48.14.48.14-.15-.08-.3-.17-.45-.25.93-3.72,11.24-48.73-26.28-71.62ZM230.45,166.69s-.06.05-.09.1c.1-.08.14-.12.09-.1ZM285.26,307.81s50.76,17.61,56.76-9.07c6.01-26.68-39.79-13.9-56.76,9.07ZM52.89,8.16S-1.56,7.05.03,60.76c1.59,53.71,73.84,89.44,73.84,89.44,0,0-45.46-59.45-20.99-142.04Z"/>
</svg>