<?xml version="1.0" encoding="UTF-8"?>
<svg id="_Ícones" data-name="Ícones" xmlns="http://www.w3.org/2000/svg" viewBox="0 0 1920 130">
  <defs>
    <style>
      .cls-1 {
        fill: #f29e23;
      }
    </style>
  </defs>
  <path class="cls-1" d="M429.62,26.82h13.46V0h-147.69S295.38,0,295.38,0h-147.69S147.69,0,147.69,0H0S0,26.82,0,26.82h13.44C5.23,33.59,0,43.84,0,55.31,0,75.69,16.52,92.22,36.91,92.22c0,20.39,16.53,36.92,36.92,36.92s36.92-16.53,36.92-36.92c20.39,0,36.91-16.53,36.91-36.92,0-11.47-5.23-21.72-13.44-28.49h13.46s13.44,0,13.44,0c-8.21,6.77-13.44,17.02-13.44,28.49,0,20.39,16.52,36.92,36.91,36.92,0,20.39,16.53,36.92,36.92,36.92s36.92-16.53,36.92-36.92c20.39,0,36.91-16.53,36.91-36.92,0-11.47-5.23-21.72-13.44-28.49h13.46s13.44,0,13.44,0c-8.21,6.77-13.44,17.02-13.44,28.49,0,20.39,16.52,36.92,36.91,36.92,0,20.39,16.53,36.92,36.92,36.92s36.92-16.53,36.92-36.92c20.39,0,36.91-16.53,36.91-36.92,0-11.47-5.23-21.72-13.44-28.49ZM36.91,66.5c-6.18,0-11.19-5.01-11.19-11.2s5.01-11.2,11.19-11.2,23.51,11.2,23.51,11.2c0,0-17.32,11.2-23.51,11.2ZM73.84,103.42c-6.18,0-11.19-5.01-11.19-11.19s11.19-23.5,11.19-23.5c0,0,11.19,17.32,11.19,23.5s-5.01,11.19-11.19,11.19ZM74.35,41.72s-11.19-17.32-11.19-23.5,5.01-11.19,11.19-11.19,11.19,5.01,11.19,11.19-11.19,23.5-11.19,23.5ZM110.76,66.5c-6.19,0-23.5-11.2-23.5-11.2,0,0,17.31-11.2,23.5-11.2s11.19,5.02,11.19,11.2-5.01,11.2-11.19,11.2ZM184.61,66.5c-6.18,0-11.19-5.01-11.19-11.2s5.01-11.2,11.19-11.2,23.51,11.2,23.51,11.2c0,0-17.32,11.2-23.51,11.2ZM221.53,103.42c-6.18,0-11.19-5.01-11.19-11.19s11.19-23.5,11.19-23.5c0,0,11.19,17.32,11.19,23.5s-5.01,11.19-11.19,11.19ZM222.04,41.72s-11.19-17.32-11.19-23.5,5.01-11.19,11.19-11.19,11.19,5.01,11.19,11.19-11.19,23.5-11.19,23.5ZM258.45,66.5c-6.19,0-23.5-11.2-23.5-11.2,0,0,17.31-11.2,23.5-11.2s11.19,5.02,11.19,11.2-5.01,11.2-11.19,11.2ZM332.3,66.5c-6.18,0-11.19-5.01-11.19-11.2s5.01-11.2,11.19-11.2,23.51,11.2,23.51,11.2c0,0-17.32,11.2-23.51,11.2ZM369.22,103.42c-6.18,0-11.19-5.01-11.19-11.19s11.19-23.5,11.19-23.5c0,0,11.19,17.32,11.19,23.5s-5.01,11.19-11.19,11.19ZM369.74,41.72s-11.19-17.32-11.19-23.5,5.01-11.19,11.19-11.19,11.19,5.01,11.19,11.19-11.19,23.5-11.19,23.5ZM406.14,66.5c-6.19,0-23.5-11.2-23.5-11.2,0,0,17.31-11.2,23.5-11.2s11.19,5.02,11.19,11.2-5.01,11.2-11.19,11.2ZM1920,55.31,1920,0h0s-.31,0-.31,0h-147.39s0,0,0,0h-147.69s0,0,0,0h-147.69s0,0,0,0h-147.69s0,0,0,0h-147.69s0,0,0,0h-147.69s0,0,0,0h-147.69S886.15,0,886.15,0h-147.69S738.46,0,738.46,0h-147.69S590.77,0,590.77,0h-147.69s0,26.81,0,26.81h13.44c-8.21,6.77-13.44,17.02-13.44,28.49,0,20.39,16.52,36.92,36.91,36.92,0,20.39,16.53,36.92,36.92,36.92s36.92-16.53,36.92-36.92c20.39,0,36.91-16.53,36.91-36.92,0-11.47-5.23-21.72-13.44-28.49h13.46s13.44,0,13.44,0c-8.21,6.77-13.44,17.02-13.44,28.49,0,20.39,16.52,36.92,36.91,36.92,0,20.39,16.53,36.92,36.92,36.92s36.92-16.53,36.92-36.92c20.39,0,36.91-16.53,36.91-36.92,0-11.47-5.23-21.72-13.44-28.49h13.46s13.44,0,13.44,0c-8.21,6.77-13.44,17.02-13.44,28.49,0,20.39,16.52,36.92,36.91,36.92,0,20.39,16.53,36.92,36.92,36.92s36.92-16.53,36.92-36.92c20.39,0,36.91-16.53,36.91-36.92,0-11.47-5.23-21.72-13.44-28.49h13.46s13.44,0,13.44,0c-8.21,6.77-13.44,17.02-13.44,28.49,0,20.39,16.52,36.92,36.91,36.92,0,20.39,16.53,36.92,36.92,36.92s36.92-16.53,36.92-36.92c20.39,0,36.91-16.53,36.91-36.92,0-11.47-5.23-21.72-13.44-28.49h13.46s13.44,0,13.44,0c-8.21,6.77-13.44,17.02-13.44,28.49,0,20.39,16.52,36.92,36.91,36.92,0,20.39,16.53,36.92,36.92,36.92s36.92-16.53,36.92-36.92c20.39,0,36.91-16.53,36.91-36.92,0-11.47-5.23-21.72-13.44-28.49h13.46s13.44,0,13.44,0c-8.21,6.77-13.44,17.02-13.44,28.49,0,20.39,16.52,36.92,36.91,36.92,0,20.39,16.53,36.92,36.92,36.92s36.92-16.53,36.92-36.92c20.39,0,36.91-16.53,36.91-36.92,0-11.47-5.23-21.72-13.44-28.49h13.46s13.44,0,13.44,0c-8.21,6.77-13.44,17.02-13.44,28.49,0,20.39,16.52,36.92,36.91,36.92,0,20.39,16.53,36.92,36.92,36.92s36.92-16.53,36.92-36.92c20.39,0,36.91-16.53,36.91-36.92,0-11.47-5.23-21.72-13.44-28.49h13.46s13.44,0,13.44,0c-8.21,6.77-13.44,17.02-13.44,28.49,0,20.39,16.52,36.92,36.91,36.92,0,20.39,16.53,36.92,36.92,36.92s36.92-16.53,36.92-36.92c20.39,0,36.91-16.53,36.91-36.92,0-11.47-5.23-21.72-13.44-28.49h13.46s13.44,0,13.44,0c-8.21,6.77-13.44,17.02-13.44,28.49,0,20.39,16.52,36.92,36.91,36.92,0,20.39,16.53,36.92,36.92,36.92s36.92-16.53,36.92-36.92c20.39,0,36.91-16.53,36.91-36.92,0-11.47-5.23-21.72-13.44-28.49h13.46s13.44,0,13.44,0c-8.21,6.77-13.44,17.02-13.44,28.49,0,20.39,16.52,36.92,36.91,36.92,0,20.39,16.53,36.92,36.92,36.92s36.92-16.53,36.92-36.92c20.39,0,36.91-16.53,36.91-36.92,0-11.47-5.23-21.72-13.44-28.49h13.46M479.99,66.5c-6.18,0-11.19-5.01-11.19-11.2s5.01-11.2,11.19-11.2,23.51,11.2,23.51,11.2c0,0-17.32,11.2-23.51,11.2ZM516.91,103.42c-6.18,0-11.19-5.01-11.19-11.19s11.19-23.5,11.19-23.5c0,0,11.19,17.32,11.19,23.5s-5.01,11.19-11.19,11.19ZM517.43,41.72s-11.19-17.32-11.19-23.5,5.01-11.19,11.19-11.19,11.19,5.01,11.19,11.19-11.19,23.5-11.19,23.5ZM553.83,66.5c-6.19,0-23.5-11.2-23.5-11.2,0,0,17.31-11.2,23.5-11.2s11.19,5.02,11.19,11.2-5.01,11.2-11.19,11.2ZM627.68,66.5c-6.18,0-11.19-5.01-11.19-11.2s5.01-11.2,11.19-11.2,23.51,11.2,23.51,11.2c0,0-17.32,11.2-23.51,11.2ZM664.61,103.42c-6.18,0-11.19-5.01-11.19-11.19s11.19-23.5,11.19-23.5c0,0,11.19,17.32,11.19,23.5s-5.01,11.19-11.19,11.19ZM665.12,41.72s-11.19-17.32-11.19-23.5,5.01-11.19,11.19-11.19,11.19,5.01,11.19,11.19-11.19,23.5-11.19,23.5ZM701.53,66.5c-6.19,0-23.5-11.2-23.5-11.2,0,0,17.31-11.2,23.5-11.2s11.19,5.02,11.19,11.2-5.01,11.2-11.19,11.2ZM775.38,66.5c-6.18,0-11.19-5.01-11.19-11.2,0-6.18,5.01-11.2,11.19-11.2s23.51,11.2,23.51,11.2c0,0-17.32,11.2-23.51,11.2ZM812.3,103.42c-6.18,0-11.19-5.01-11.19-11.19s11.19-23.5,11.19-23.5c0,0,11.19,17.32,11.19,23.5s-5.01,11.19-11.19,11.19ZM812.81,41.72s-11.19-17.32-11.19-23.5,5.01-11.19,11.19-11.19,11.19,5.01,11.19,11.19-11.19,23.5-11.19,23.5ZM849.22,66.5c-6.19,0-23.5-11.2-23.5-11.2,0,0,17.31-11.2,23.5-11.2s11.19,5.02,11.19,11.2-5.01,11.2-11.19,11.2ZM923.07,66.5c-6.18,0-11.19-5.01-11.19-11.2s5.01-11.2,11.19-11.2,23.51,11.2,23.51,11.2c0,0-17.32,11.2-23.51,11.2ZM959.99,103.42c-6.18,0-11.19-5.01-11.19-11.19s11.19-23.5,11.19-23.5c0,0,11.19,17.32,11.19,23.5s-5.01,11.19-11.19,11.19ZM960.51,41.72s-11.19-17.32-11.19-23.5,5.01-11.19,11.19-11.19,11.19,5.01,11.19,11.19-11.19,23.5-11.19,23.5ZM996.91,66.5c-6.19,0-23.5-11.2-23.5-11.2,0,0,17.31-11.2,23.5-11.2s11.19,5.02,11.19,11.2-5.01,11.2-11.19,11.2ZM1070.76,66.5c-6.18,0-11.19-5.01-11.19-11.2s5.01-11.2,11.19-11.2,23.51,11.2,23.51,11.2c0,0-17.32,11.2-23.51,11.2ZM1107.68,103.42c-6.18,0-11.19-5.01-11.19-11.19s11.19-23.5,11.19-23.5c0,0,11.19,17.32,11.19,23.5s-5.01,11.19-11.19,11.19ZM1108.2,41.72s-11.19-17.32-11.19-23.5,5.01-11.19,11.19-11.19,11.19,5.01,11.19,11.19-11.19,23.5-11.19,23.5ZM1144.6,66.5c-6.19,0-23.5-11.2-23.5-11.2,0,0,17.31-11.2,23.5-11.2s11.19,5.02,11.19,11.2-5.01,11.2-11.19,11.2ZM1218.45,66.5c-6.18,0-11.19-5.01-11.19-11.2s5.01-11.2,11.19-11.2,23.51,11.2,23.51,11.2c0,0-17.32,11.2-23.51,11.2ZM1255.38,103.42c-6.18,0-11.19-5.01-11.19-11.19s11.19-23.5,11.19-23.5c0,0,11.19,17.32,11.19,23.5s-5.01,11.19-11.19,11.19ZM1255.89,41.72s-11.19-17.32-11.19-23.5,5.01-11.19,11.19-11.19,11.19,5.01,11.19,11.19-11.19,23.5-11.19,23.5ZM1292.29,66.5c-6.19,0-23.5-11.2-23.5-11.2,0,0,17.31-11.2,23.5-11.2s11.19,5.02,11.19,11.2-5.01,11.2-11.19,11.2ZM1366.14,66.5c-6.18,0-11.19-5.01-11.19-11.2s5.01-11.2,11.19-11.2,23.51,11.2,23.51,11.2c0,0-17.32,11.2-23.51,11.2ZM1403.07,103.42c-6.18,0-11.19-5.01-11.19-11.19s11.19-23.5,11.19-23.5c0,0,11.19,17.32,11.19,23.5s-5.01,11.19-11.19,11.19ZM1403.58,41.72s-11.19-17.32-11.19-23.5,5.01-11.19,11.19-11.19,11.19,5.01,11.19,11.19-11.19,23.5-11.19,23.5ZM1439.99,66.5c-6.19,0-23.5-11.2-23.5-11.2,0,0,17.31-11.2,23.5-11.2s11.19,5.02,11.19,11.2-5.01,11.2-11.19,11.2ZM1513.84,66.5c-6.18,0-11.19-5.01-11.19-11.2s5.01-11.2,11.19-11.2,23.51,11.2,23.51,11.2c0,0-17.32,11.2-23.51,11.2ZM1550.76,103.42c-6.18,0-11.19-5.01-11.19-11.19s11.19-23.5,11.19-23.5c0,0,11.19,17.32,11.19,23.5s-5.01,11.19-11.19,11.19ZM1551.27,41.72s-11.19-17.32-11.19-23.5,5.01-11.19,11.19-11.19,11.19,5.01,11.19,11.19-11.19,23.5-11.19,23.5ZM1587.68,66.5c-6.19,0-23.5-11.2-23.5-11.2,0,0,17.31-11.2,23.5-11.2s11.19,5.02,11.19,11.2-5.01,11.2-11.19,11.2ZM1661.53,66.5c-6.18,0-11.19-5.01-11.19-11.2s5.01-11.2,11.19-11.2,23.51,11.2,23.51,11.2c0,0-17.32,11.2-23.51,11.2ZM1698.45,103.42c-6.18,0-11.19-5.01-11.19-11.19s11.19-23.5,11.19-23.5c0,0,11.19,17.32,11.19,23.5s-5.01,11.19-11.19,11.19ZM1698.97,41.72s-11.19-17.32-11.19-23.5,5.01-11.19,11.19-11.19,11.19,5.01,11.19,11.19-11.19,23.5-11.19,23.5ZM1735.37,66.5c-6.19,0-23.5-11.2-23.5-11.2,0,0,17.31-11.2,23.5-11.2s11.19,5.02,11.19,11.2-5.01,11.2-11.19,11.2ZM1809.22,66.5c-6.18,0-11.19-5.01-11.19-11.2s5.01-11.2,11.19-11.2,23.51,11.2,23.51,11.2c0,0-17.32,11.2-23.51,11.2ZM1846.14,103.42c-6.18,0-11.19-5.01-11.19-11.19s11.19-23.5,11.19-23.5c0,0,11.19,17.32,11.19,23.5s-5.01,11.19-11.19,11.19ZM1846.66,41.72s-11.19-17.32-11.19-23.5,5.01-11.19,11.19-11.19,11.19,5.01,11.19,11.19-11.19,23.5-11.19,23.5ZM1883.06,66.5c-6.19,0-23.5-11.2-23.5-11.2,0,0,17.31-11.2,23.5-11.2s11.19,5.02,11.19,11.2-5.01,11.2-11.19,11.2Z"/>
</svg>