<?xml version="1.0" encoding="UTF-8"?>
<svg id="_Ícones" data-name="Ícones" xmlns="http://www.w3.org/2000/svg" viewBox="0 0 130 130">
  <defs>
    <style>
      .cls-1 {
        fill: #fffceb;
      }
    </style>
  </defs>
  <path class="cls-1" d="M130,64.98c0-17.95-14.54-32.5-32.49-32.5,0-17.95-14.55-32.5-32.5-32.5,0,0,0,0,0,0s0,0,0,0c-17.95,0-32.5,14.55-32.5,32.5C14.54,32.48,0,47.03,0,64.98c0,0,0,.01,0,.02S0,65.01,0,65.02c0,17.95,14.54,32.5,32.49,32.5,0,17.95,14.55,32.5,32.5,32.5,0,0,0,0,0,0s0,0,0,0c17.95,0,32.5-14.55,32.5-32.5,17.95,0,32.49-14.55,32.49-32.5,0,0,0-.01,0-.02s0-.01,0-.02ZM32.51,74.83c-5.43,0-9.83-4.4-9.85-9.83.02-5.43,4.42-9.83,9.85-9.83,5.36,0,20.18,9.53,20.64,9.83-.46.3-15.28,9.83-20.64,9.83ZM65,107.32c-5.44,0-9.84-4.41-9.84-9.85,0-.34.04-.72.11-1.13,1.12-6.18,9.73-19.51,9.73-19.51,0,0,0,0,0,0,0,0,0,0,0,0,0,0,8.62,13.34,9.73,19.51.07.41.11.79.11,1.13,0,5.44-4.41,9.85-9.85,9.85ZM74.74,33.66c-1.12,6.18-9.73,19.51-9.73,19.51,0,0,0,0,0,0,0,0,0,0,0,0,0,0-8.62-13.34-9.73-19.51-.07-.41-.11-.79-.11-1.13,0-5.44,4.41-9.85,9.84-9.85,5.44,0,9.85,4.41,9.85,9.85,0,.34-.04.72-.11,1.13ZM97.49,74.83c-5.36,0-20.18-9.53-20.64-9.83.46-.3,15.28-9.83,20.64-9.83,5.43,0,9.83,4.4,9.85,9.83-.02,5.43-4.42,9.83-9.85,9.83Z"/>
</svg>