<?xml version="1.0" encoding="UTF-8"?>
<svg id="DVDJ_Preparo_em_airfryer" data-name="DVDJ Preparo em airfryer" xmlns="http://www.w3.org/2000/svg" viewBox="0 0 120 120">
  <defs>
    <style>
      .cls-1 {
        fill: #fffceb;
      }

      .cls-2 {
        fill: #77410c;
      }
    </style>
  </defs>
  <g id="Preparo_em_Airfryer" data-name="Preparo em Airfryer">
    <circle class="cls-1" cx="60" cy="60" r="51.76" transform="translate(-.07 .07)"/>
    <g>
      <path class="cls-2" d="M119.85,60.4v-.08c0-3.29-1.62-5.45-3.24-7.61-.58-.77-1.16-1.54-1.19-1.71-.02-.14.28-1.03.59-1.91v-.02c.87-2.53,1.74-5.05.71-8.21l-.03-.08c-1.09-3.16-3.31-4.66-5.54-6.17-.82-.55-1.63-1.11-1.69-1.21-.05-.1-.05-1.06-.05-2.02,0-2.67.01-5.34-2.02-8.02l-.04-.06c-2.05-2.62-4.65-3.33-7.25-4.03-.94-.25-1.89-.51-1.99-.6-.11-.1-.41-.98-.71-1.87-.86-2.54-1.73-5.07-4.51-6.94l-.07-.06c-2.77-1.8-5.46-1.62-8.16-1.44-.96.06-1.93.13-2.09.06-.12-.05-.69-.8-1.27-1.54-1.65-2.12-3.29-4.25-6.5-5.11h-.08c-3.24-.83-5.7.21-8.17,1.24-.91.38-1.83.77-1.96.76-.13-.01-.92-.53-1.71-1.05C60.66,1.26,58.43-.21,55.08.02h-.08c-3.32.29-5.32,2.07-7.33,3.86-.73.65-1.46,1.3-1.6,1.33-.12.03-1.04-.21-1.96-.44-2.59-.66-5.17-1.32-8.27-.01l-.08.03c-3.02,1.34-4.34,3.68-5.66,6.03-.48.85-.96,1.7-1.08,1.78-.13.08-1.06.16-1.99.23-2.68.22-5.36.43-7.84,2.65l-.06.07c-2.45,2.27-2.93,4.9-3.42,7.55-.18.96-.35,1.92-.44,2.03-.09.11-.94.49-1.8.86h-.02c-2.45,1.07-4.9,2.14-6.54,5.07l-.04.06c-1.57,2.93-1.18,5.58-.78,8.23.15.98.29,1.96.25,2.09-.04.11-.73.75-1.43,1.38-1.98,1.81-3.95,3.62-4.55,6.93v.08c-.55,3.27.69,5.65,1.93,8.03.45.86.9,1.73.9,1.89,0,.15-.45.97-.89,1.79-1.28,2.36-2.57,4.72-2.06,8.01l.03.08c.56,3.29,2.5,5.13,4.44,6.98.71.68,1.42,1.35,1.46,1.47.05.14-.11,1.08-.27,2.02-.44,2.63-.89,5.26.66,8.21l.05.08c1.59,2.92,4.03,4.04,6.47,5.16.88.4,1.77.81,1.87.94.06.08.22,1.03.37,1.97.43,2.63.87,5.25,3.32,7.57l.07.06c2.47,2.26,5.14,2.53,7.8,2.79.98.1,1.97.2,2.05.25v.02c.1.07.55.9.99,1.72,1.27,2.36,2.54,4.72,5.6,6.11l.08.03c3.01,1.31,5.63.7,8.25.08.94-.22,1.88-.44,2.05-.4.13.03.83.68,1.52,1.32,1.97,1.82,3.93,3.64,7.26,3.96h.08c3.32.26,5.58-1.17,7.86-2.6.82-.52,1.64-1.03,1.81-1.05.14-.01,1,.37,1.85.75,2.45,1.08,4.89,2.16,8.16,1.38h.08c3.21-.83,4.89-2.93,6.59-5.03.61-.76,1.22-1.52,1.36-1.58.13-.06,1.07.02,2.01.1,2.67.23,5.33.45,8.14-1.33l.08-.05c2.78-1.83,3.7-4.36,4.61-6.89.33-.91.66-1.81.76-1.94h0c.1-.08,1.01-.31,1.93-.54,2.58-.65,5.16-1.3,7.27-3.93l.06-.07c2.03-2.62,2.08-5.31,2.12-8.01.02-.96.03-1.92.11-2.06.07-.13.86-.64,1.64-1.15,2.25-1.46,4.49-2.92,5.62-6.08l.03-.08c1.06-3.12.23-5.68-.6-8.24-.3-.92-.6-1.85-.57-2.02.02-.14.6-.87,1.17-1.61,1.65-2.11,3.3-4.22,3.34-7.56ZM63.85,109.85c-27.53,2.13-51.57-18.47-53.7-46C8.02,36.32,28.62,12.28,56.15,10.15c27.53-2.13,51.57,18.47,53.7,46,2.13,27.53-18.47,51.57-46,53.7Z"/>
      <circle class="cls-2" cx="60" cy="60" r="29.79" transform="translate(-.36 .37) rotate(-.35)"/>
    </g>
    <g>
      <path class="cls-2" d="M30.94,34.08c1.16-1.35.68-2.74-.33-3.6-.99-.85-2.47-1.14-3.63.21l-2.16,2.51,6.28,5.38.8-.94-2.32-1.99,1.35-1.58ZM26.5,33l1.34-1.56c.6-.7,1.42-.5,1.98-.02s.85,1.25.23,1.98l-1.3,1.52-2.24-1.92Z"/>
      <path class="cls-2" d="M36.59,32.79l-1.92-2.41.73-.58,3.58,1.09,1.15-.92-3.62-1.06c1-.96.78-2.39.04-3.32-.81-1.02-2.2-1.59-3.62-.46l-2.47,1.97,5.15,6.47.97-.77ZM32.14,27.21l1.49-1.19c.63-.5,1.42-.33,1.96.34.55.68.56,1.46-.33,2.17l-1.27,1.01-1.85-2.33Z"/>
      <polygon class="cls-2" points="45.65 27 45.12 26.01 41.73 27.81 40.62 25.72 43.49 24.2 42.95 23.19 40.08 24.72 38.91 22.5 42.2 20.75 41.67 19.76 37.3 22.08 41.18 29.38 45.65 27"/>
      <path class="cls-2" d="M47.95,26.19l-.92-2.92,1.98-.62c1.69-.53,2.02-1.97,1.62-3.23-.39-1.25-1.49-2.27-3.19-1.74l-3.16.99,2.48,7.88,1.18-.37ZM45.81,19.38l1.96-.62c.88-.28,1.47.33,1.69,1.03s.06,1.52-.85,1.8l-1.91.6-.89-2.81Z"/>
      <path class="cls-2" d="M53.58,22.55l3.42-.42,1.02,1.98,1.29-.16-4.11-7.82-1.31.16-2.09,8.59,1.29-.16.5-2.17ZM54.71,17.7l1.75,3.41-2.63.33.88-3.73Z"/>
      <path class="cls-2" d="M61.38,21.05l.93.07,1.9,3.23,1.47.1-1.95-3.23c1.39-.04,2.19-1.23,2.28-2.42.09-1.31-.55-2.66-2.36-2.79l-3.15-.22-.58,8.25,1.23.09.22-3.08ZM61.66,17l1.91.13c.8.06,1.27.71,1.21,1.58-.06.87-.57,1.45-1.71,1.37l-1.62-.11.21-2.97Z"/>
      <path class="cls-2" d="M70.14,25.74c2.27.67,4.57-.65,5.23-2.89.67-2.25-.54-4.64-2.81-5.31-2.25-.67-4.55.68-5.22,2.93-.66,2.24.54,4.6,2.8,5.27ZM68.53,20.82c.48-1.63,2.1-2.66,3.71-2.18,1.62.48,2.43,2.22,1.95,3.85-.48,1.62-2.1,2.62-3.72,2.14-1.61-.48-2.42-2.19-1.94-3.81Z"/>
      <polygon class="cls-2" points="82.64 30.6 79.43 28.49 80.73 26.52 83.44 28.31 84.07 27.35 81.35 25.57 82.73 23.47 85.85 25.52 86.47 24.58 82.33 21.86 77.79 28.76 82.02 31.55 82.64 30.6"/>
      <polygon class="cls-2" points="93.96 31.69 87.69 33.72 90.05 27.56 89.29 26.76 82.6 31.72 83.45 32.61 88.3 29.01 86.32 34.31 87.05 35.08 92.43 33.36 88.58 38.02 89.42 38.9 94.72 32.49 93.96 31.69"/>
      <path class="cls-2" d="M39.26,89.28l-7.25,5.05,1.07.73,1.81-1.29,2.84,1.94-.54,2.16,1.07.73,2.09-8.58-1.09-.75ZM38.02,94.6l-2.19-1.5,3.13-2.22-.94,3.72Z"/>
      <rect class="cls-2" x="38.36" y="95.36" width="8.27" height="1.24" transform="translate(-62.4 92.08) rotate(-63.99)"/>
      <path class="cls-2" d="M49.56,94.33l-3.01-.96-2.52,7.88,1.18.38.94-2.94.89.29,1.08,3.58,1.41.45-1.13-3.6c1.35.3,2.42-.67,2.78-1.8.4-1.25.1-2.71-1.62-3.27ZM50.01,97.22c-.27.83-.9,1.27-1.99.93l-1.54-.49.91-2.83,1.82.58c.77.25,1.07,1,.8,1.82Z"/>
      <polygon class="cls-2" points="52.17 103.49 53.4 103.65 53.85 100.18 56.72 100.55 56.87 99.43 54 99.06 54.32 96.57 57.94 97.04 58.09 95.93 53.24 95.29 52.17 103.49"/>
      <path class="cls-2" d="M64.82,98.3c-.06-1.31-.85-2.58-2.66-2.5l-3.15.14.37,8.26,1.24-.05-.14-3.08.94-.04,2.26,2.99,1.47-.07-2.31-2.99c1.37-.19,2.04-1.47,1.98-2.66ZM60.43,99.99l-.13-2.97,1.91-.08c.8-.04,1.35.56,1.39,1.43.04.88-.4,1.51-1.54,1.56l-1.62.07Z"/>
      <polygon class="cls-2" points="70.58 94.36 69.07 98.12 66.06 95.43 64.64 95.77 68.74 99.4 69.62 103.08 70.82 102.8 69.95 99.11 72 94.02 70.58 94.36"/>
      <polygon class="cls-2" points="76.62 99.69 75.65 97.53 78.62 96.2 78.15 95.16 75.18 96.49 74.16 94.2 77.56 92.67 77.1 91.64 72.58 93.67 75.96 101.22 80.58 99.15 80.12 98.12 76.62 99.69"/>
      <path class="cls-2" d="M84.43,89.89c-.75-1.07-2.09-1.73-3.58-.7l-2.59,1.8,4.71,6.79,1.01-.7-1.76-2.53.77-.53,3.5,1.32,1.21-.84-3.54-1.3c1.06-.89.94-2.33.26-3.31ZM82.94,92.73l-1.33.92-1.7-2.44,1.57-1.09c.66-.46,1.44-.24,1.93.47.5.72.46,1.49-.47,2.14Z"/>
    </g>
    <g>
      <path class="cls-1" d="M60,46.21c-3.5,0-6.35,2.85-6.35,6.35s2.85,6.35,6.35,6.35,6.35-2.85,6.35-6.35-2.85-6.35-6.35-6.35ZM60,57.86c-2.92,0-5.3-2.38-5.3-5.3s2.38-5.3,5.3-5.3,5.3,2.38,5.3,5.3-2.38,5.3-5.3,5.3Z"/>
      <path class="cls-1" d="M74.09,40.85h0v-.07c0-3.06-27.56-2.98-28.07-.16-.02.03-.04.06-.06.09-5.01,12.11-5.11,25.33-.8,37.16h0s0,0,0,0c.53,1.45,1.82,2.5,3.37,2.74,3.8.58,7.63.87,11.46.87s7.66-.29,11.47-.87c1.55-.24,2.84-1.29,3.37-2.74,4.25-11.63,4.28-24.81-.75-37.04ZM60.05,39.56c7.08,0,11.72.67,12.82,1.22-.1.05-.21.1-.33.14h0c-3.9,1.44-21.09,1.44-25,0h0c-.12-.04-.23-.09-.33-.14,1.11-.55,5.74-1.22,12.83-1.22ZM48.69,79.59c-1.17-.18-2.15-.97-2.55-2.06-1.7-4.66-2.72-9.63-2.97-14.75,4.3,1.02,8.62,1.64,12.94,1.87v10.22c0,2.14,1.74,3.88,3.88,3.88s3.88-1.74,3.88-3.88v-10.23c4.32-.23,8.64-.85,12.94-1.87-.24,5.05-1.25,10.02-2.97,14.75-.4,1.09-1.38,1.89-2.55,2.06-7.5,1.15-15.1,1.15-22.61,0ZM63.88,63.59v-1.44c0-1.37-1.11-2.48-2.48-2.48h-2.8c-1.37,0-2.48,1.12-2.48,2.48v1.44c-4.35-.24-8.69-.87-12.99-1.92-.18-6.78,1.02-13.58,3.59-20,2.36,1.2,10.68,1.38,13.34,1.38s10.81-.18,13.26-1.34c2.56,6.41,3.75,13.19,3.57,19.96-4.32,1.04-8.66,1.67-13,1.91Z"/>
      <path class="cls-1" d="M63.14,52.56c0,1.73-1.41,3.14-3.15,3.14s-3.14-1.41-3.14-3.14,1.41-3.15,3.14-3.15,3.15,1.41,3.15,3.15Z"/>
    </g>
  </g>
</svg>