<?xml version="1.0" encoding="UTF-8"?>
<svg id="DVDJ_Pães_de_massa_crua" data-name="DVDJ Pães de massa crua" xmlns="http://www.w3.org/2000/svg" viewBox="0 0 96 96">
  <defs>
    <style>
      .cls-1 {
        fill: #77410c;
        fill-rule: evenodd;
      }
    </style>
  </defs>
  <path class="cls-1" d="M67.4,27.88c-6.47-10.65-13.66-19.87-17.37-24.41-.5-.61-1.24-.96-2.03-.96s-1.53.35-2.03.96c-3.71,4.55-10.9,13.77-17.37,24.42-8.33,13.73-12.56,25.08-12.56,33.73,0,17.58,14.33,31.89,31.96,31.89s31.96-14.3,31.96-31.89c0-8.66-4.23-20.01-12.56-33.74ZM52.39,81.76c-1.87.48-3.8.72-5.76.72-11.94,0-21.65-9-21.65-20.07,0-2.67.71-5.79,2.1-9.28.24-.59.91-.93,1.57-.78.66.14,1.1.72,1.04,1.34-.08.75-.12,1.48-.12,2.17,0,12.04,9.72,22.13,22.62,23.46.64.07,1.14.55,1.19,1.14s-.36,1.14-.98,1.3Z"/>
</svg>