<?xml version="1.0" encoding="UTF-8"?>
<svg id="DVDJ_Pães_de_massa_crua" data-name="DVDJ Pães de massa crua" xmlns="http://www.w3.org/2000/svg" viewBox="0 0 96 96">
  <defs>
    <style>
      .cls-1 {
        fill: #77410c;
      }
    </style>
  </defs>
  <path class="cls-1" d="M92.9,51.77c0,9.46-6.37,19.91-20.34,20.48h-.01s-48.97,0-48.97,0c-2.76,0-5.57-.58-8.14-1.69-2.6-1.13-4.88-2.74-6.8-4.78-3.86-4.13-5.86-9.71-5.5-15.33.37-5.63,3.07-10.92,7.42-14.49,3.65-3.01,8.28-4.67,13.04-4.67.42,0,.84.02,1.26.04l1.38.06-.73,1.13c-2.87,4.12-4.52,8.95-4.78,13.99,0,.4.18.81.51,1.1.32.27.71.39,1.17.34.8-.03,1.4-.63,1.42-1.37.5-9.26,6.25-17.27,15.01-20.91,3.04-1.27,6.23-1.92,9.47-1.92,5.43,0,10.53,1.8,14.75,5.2l.96.77-1.12.51c-6.35,2.87-11.25,8.57-13.11,15.27-.11.39-.05.81.16,1.15.21.33.54.56.93.64.55.16.86.09,1.18-.09.37-.2.63-.53.73-.92,2.48-8.79,10.59-14.96,19.72-15.01,14.04.59,20.4,11.03,20.4,20.49Z"/>
</svg>