<?xml version="1.0" encoding="UTF-8"?>
<svg id="DVDJ_Asse_os_pães" data-name="DVDJ Asse os pães" xmlns="http://www.w3.org/2000/svg" viewBox="0 0 96 96">
  <defs>
    <style>
      .cls-1 {
        fill: #e67e17;
        fill-rule: evenodd;
      }
    </style>
  </defs>
  <path class="cls-1" d="M71.43,36.86c-.23-.31-.51-.25-.66-.19-.12.06-.4.23-.36.66.05.52.07,1.05.08,1.57.02,2.17-.78,4.3-2.21,5.83-1.41,1.53-3.27,2.35-5.25,2.33-2.7-.04-4.94-1.56-6.48-4.42-1.27-2.36-.71-5.4-.12-8.62.35-1.89.71-3.83.71-5.69,0-14.44-8.96-22.77-14.3-26.46-.11-.08-.22-.1-.31-.1-.15,0-.27.07-.33.11-.11.08-.3.28-.24.62,2.04,11.75-4.05,18.81-10.5,26.29-6.65,7.71-14.18,16.45-14.18,32.21,0,18.31,13.75,33.21,30.65,33.21,13.92,0,26.19-10.51,29.84-25.56,2.49-10.26-.12-23.34-6.34-31.79h0ZM48.7,87.13c-4.23.21-8.26-1.44-11.33-4.62-3.04-3.15-4.78-7.55-4.78-12.06,0-8.47,2.99-14.7,11.03-22.96.13-.14.27-.18.38-.18.11,0,.2.04.26.07.13.07.35.24.32.62-.29,3.63-.28,6.64.01,8.95.76,5.9,4.75,9.87,9.92,9.87,2.54,0,4.95-1.03,6.8-2.91.22-.22.45-.19.55-.17.12.03.28.11.37.33.77,2.01,1.16,4.14,1.17,6.33.02,8.83-6.58,16.34-14.71,16.74h0Z"/>
</svg>