<?xml version="1.0" encoding="UTF-8"?>
<svg id="DVDJ_Asse_os_pães" data-name="DVDJ Asse os pães" xmlns="http://www.w3.org/2000/svg" viewBox="0 0 96 96">
  <defs>
    <style>
      .cls-1 {
        fill: #e67e17;
      }
    </style>
  </defs>
  <path class="cls-1" d="M72.52,36.06h0c-.55-.74-1.44-.99-2.3-.62-.79.36-1.23,1.13-1.15,2.01.04.48.07.97.07,1.46.02,1.83-.66,3.62-1.85,4.9-1.15,1.24-2.61,1.9-4.24,1.89-2.21-.03-4-1.28-5.31-3.71-1.05-1.94-.53-4.75.03-7.77.35-1.93.72-3.93.72-5.9,0-15.06-9.33-23.74-14.89-27.57-.66-.46-1.54-.45-2.2.03-.62.45-.91,1.17-.78,1.94,1.93,11.12-3.68,17.63-10.19,25.18-6.8,7.89-14.5,16.83-14.5,33.09,0,19.06,14.36,34.56,32,34.56,14.54,0,27.35-10.94,31.15-26.6,2.58-10.62-.12-24.16-6.57-32.91ZM76.47,68.34c-3.51,14.44-15.24,24.53-28.53,24.53-16.16,0-29.3-14.29-29.3-31.86,0-15.26,7.36-23.8,13.85-31.33,6.06-7.03,12.31-14.28,11.06-25.62,5.14,3.96,12.25,11.7,12.25,24.27,0,1.72-.34,3.6-.69,5.45-.61,3.3-1.23,6.72.26,9.49,1.79,3.31,4.43,5.08,7.65,5.12.03,0,.07,0,.1,0,2.32,0,4.51-.98,6.16-2.76,1.44-1.56,2.34-3.63,2.53-5.81,4.94,8.11,6.86,19.44,4.66,28.5Z"/>
  <path class="cls-1" d="M62.17,62.41c-.64-.14-1.32.06-1.8.54-1.59,1.62-3.67,2.51-5.84,2.51-4.46,0-7.91-3.49-8.58-8.69-.28-2.22-.29-5.13,0-8.66.07-.82-.33-1.56-1.04-1.93-.74-.39-1.65-.24-2.24.37-8.32,8.54-11.42,15.02-11.42,23.9,0,4.86,1.88,9.6,5.16,13,3.16,3.28,7.25,5.05,11.58,5.05.26,0,.52,0,.79-.02,8.85-.43,16.02-8.54,16-18.09,0-2.36-.43-4.65-1.25-6.81-.23-.6-.71-1.02-1.34-1.17ZM48.64,85.78h0c-3.83.19-7.49-1.3-10.29-4.21-2.8-2.9-4.41-6.96-4.41-11.13,0-7.54,2.52-13.24,9.17-20.45-.14,2.8-.09,5.19.16,7.12.85,6.6,5.38,11.04,11.26,11.04,2.5,0,4.89-.87,6.85-2.48.45,1.51.69,3.1.69,4.72.02,8.12-6,15.03-13.43,15.38Z"/>
</svg>