<?xml version="1.0" encoding="UTF-8"?>
<svg id="DVDJ_Distância_dos_pães" data-name="DVDJ Distância dos pães" xmlns="http://www.w3.org/2000/svg" viewBox="0 0 96 96">
  <defs>
    <style>
      .cls-1, .cls-2 {
        fill: #e67e17;
      }

      .cls-2 {
        fill-rule: evenodd;
      }
    </style>
  </defs>
  <path class="cls-2" d="M68.39,34.01c-.66-.66-1.72-.65-2.38,0-.65.65-.65,1.72,0,2.38l9.95,9.94H20.04l9.95-9.94c.32-.32.49-.74.49-1.19s-.17-.87-.49-1.19c-.65-.66-1.72-.66-2.38,0l-12.8,12.8c-.31.31-.49.75-.49,1.19s.18.87.49,1.19l12.8,12.8c.66.65,1.72.66,2.38,0,.32-.32.49-.74.49-1.19s-.17-.87-.49-1.19l-9.95-9.94h55.92l-9.95,9.94c-.65.65-.65,1.72,0,2.37.66.65,1.72.66,2.38,0l12.8-12.8c.31-.31.49-.75.49-1.19s-.18-.87-.49-1.18l-12.8-12.8Z"/>
  <rect class="cls-1" x="1.55" y="16.69" width="3.3" height="62.6" rx="1.5" ry="1.5"/>
  <rect class="cls-1" x="91.15" y="16.69" width="3.3" height="62.6" rx="1.5" ry="1.5"/>
</svg>