<?xml version="1.0" encoding="UTF-8"?>
<svg id="DVDJ_Tempo_de_forno" data-name="DVDJ Tempo de forno" xmlns="http://www.w3.org/2000/svg" viewBox="0 0 120 120">
  <defs>
    <style>
      .cls-1 {
        fill: #e67e17;
      }

      .cls-2 {
        fill: #fffceb;
      }
    </style>
  </defs>
  <g id="Preparo_em_Airfryer" data-name="Preparo em Airfryer">
    <circle class="cls-2" cx="60" cy="60" r="51.76" transform="translate(-.07 .07)"/>
    <g>
      <path class="cls-1" d="M119.85,60.4v-.08c0-3.29-1.62-5.45-3.24-7.61-.58-.77-1.16-1.54-1.19-1.71-.02-.14.28-1.03.59-1.91v-.02c.87-2.53,1.74-5.05.71-8.21l-.03-.08c-1.09-3.16-3.31-4.66-5.54-6.17-.82-.55-1.63-1.11-1.69-1.21-.05-.1-.05-1.06-.05-2.02,0-2.67.01-5.34-2.02-8.02l-.04-.06c-2.05-2.62-4.65-3.33-7.25-4.03-.94-.25-1.89-.51-1.99-.6-.11-.1-.41-.98-.71-1.87-.86-2.54-1.73-5.07-4.51-6.94l-.07-.06c-2.77-1.8-5.46-1.62-8.16-1.44-.96.06-1.93.13-2.09.06-.12-.05-.69-.8-1.27-1.54-1.65-2.12-3.29-4.25-6.5-5.11h-.08c-3.24-.83-5.7.21-8.17,1.24-.91.38-1.83.77-1.96.76-.13-.01-.92-.53-1.71-1.05C60.66,1.26,58.43-.21,55.08.02h-.08c-3.32.29-5.32,2.07-7.33,3.86-.73.65-1.46,1.3-1.6,1.33-.12.03-1.04-.21-1.96-.44-2.59-.66-5.17-1.32-8.27-.01l-.08.03c-3.02,1.34-4.34,3.68-5.66,6.03-.48.85-.96,1.7-1.08,1.78-.13.08-1.06.16-1.99.23-2.68.22-5.36.43-7.84,2.65l-.06.07c-2.45,2.27-2.93,4.9-3.42,7.55-.18.96-.35,1.92-.44,2.03-.09.11-.94.49-1.8.86h-.02c-2.45,1.07-4.9,2.14-6.54,5.07l-.04.06c-1.57,2.93-1.18,5.58-.78,8.23.15.98.29,1.96.25,2.09-.04.11-.73.75-1.43,1.38-1.98,1.81-3.95,3.62-4.55,6.93v.08c-.55,3.27.69,5.65,1.93,8.03.45.86.9,1.73.9,1.89,0,.15-.45.97-.89,1.79-1.28,2.36-2.57,4.72-2.06,8.01l.03.08c.56,3.29,2.5,5.13,4.44,6.98.71.68,1.42,1.35,1.46,1.47.05.14-.11,1.08-.27,2.02-.44,2.63-.89,5.26.66,8.21l.05.08c1.59,2.92,4.03,4.04,6.47,5.16.88.4,1.77.81,1.87.94.06.08.22,1.03.37,1.97.43,2.63.87,5.25,3.32,7.57l.07.06c2.47,2.26,5.14,2.53,7.8,2.79.98.1,1.97.2,2.05.25v.02c.1.07.55.9.99,1.72,1.27,2.36,2.54,4.72,5.6,6.11l.08.03c3.01,1.31,5.63.7,8.25.08.94-.22,1.88-.44,2.05-.4.13.03.83.68,1.52,1.32,1.97,1.82,3.93,3.64,7.26,3.96h.08c3.32.26,5.58-1.17,7.86-2.6.82-.52,1.64-1.03,1.81-1.05.14-.01,1,.37,1.85.75,2.45,1.08,4.89,2.16,8.16,1.38h.08c3.21-.83,4.89-2.93,6.59-5.03.61-.76,1.22-1.52,1.36-1.58.13-.06,1.07.02,2.01.1,2.67.23,5.33.45,8.14-1.33l.08-.05c2.78-1.83,3.7-4.36,4.61-6.89.33-.91.66-1.81.76-1.94h0c.1-.08,1.01-.31,1.93-.54,2.58-.65,5.16-1.3,7.27-3.93l.06-.07c2.03-2.62,2.08-5.31,2.12-8.01.02-.96.03-1.92.11-2.06.07-.13.86-.64,1.64-1.15,2.25-1.46,4.49-2.92,5.62-6.08l.03-.08c1.06-3.12.23-5.68-.6-8.24-.3-.92-.6-1.85-.57-2.02.02-.14.6-.87,1.17-1.61,1.65-2.11,3.3-4.22,3.34-7.56ZM63.85,109.85c-27.53,2.13-51.57-18.47-53.7-46C8.02,36.32,28.62,12.28,56.15,10.15c27.53-2.13,51.57,18.47,53.7,46,2.13,27.53-18.47,51.57-46,53.7Z"/>
      <circle class="cls-1" cx="60" cy="60" r="29.79" transform="translate(-.36 .37) rotate(-.35)"/>
    </g>
    <g>
      <path class="cls-1" d="M37.57,31.98l-1.82-2.46,1.67-1.24c1.43-1.06,1.26-2.52.48-3.58-.78-1.05-2.16-1.66-3.58-.6l-2.66,1.97,4.93,6.63.99-.74ZM33.32,26.25l1.65-1.22c.74-.55,1.5-.17,1.94.41.44.59.55,1.41-.22,1.98l-1.61,1.2-1.76-2.37Z"/>
      <path class="cls-1" d="M43.17,28.29l-1.34-2.78.84-.41,3.25,1.85,1.33-.64-3.3-1.83c1.19-.72,1.29-2.16.77-3.23-.57-1.18-1.8-2.04-3.43-1.25l-2.84,1.37,3.6,7.44,1.11-.54ZM40.06,21.86l1.72-.83c.72-.35,1.46-.01,1.83.77.38.79.23,1.54-.8,2.04l-1.46.7-1.29-2.68Z"/>
      <path class="cls-1" d="M51.75,25.24c2.3-.54,3.65-2.83,3.11-5.11-.54-2.29-2.77-3.76-5.07-3.22-2.29.54-3.62,2.85-3.08,5.13.54,2.28,2.75,3.73,5.04,3.19ZM50.06,18.03c1.65-.39,3.21.72,3.6,2.38.39,1.65-.53,3.31-2.17,3.7-1.63.38-3.18-.7-3.57-2.35-.39-1.66.51-3.35,2.14-3.73Z"/>
      <path class="cls-1" d="M63.8,20.08c.04-2.35-1.31-4.17-3.67-4.21l-3.21-.05-.14,8.26,3.21.05c2.36.04,3.77-1.71,3.81-4.05ZM58.13,16.97l1.98.03c1.66.03,2.48,1.38,2.46,3.06-.03,1.68-.9,2.97-2.56,2.95l-1.98-.03.1-6.01Z"/>
      <path class="cls-1" d="M71.38,22.87l1.17-5.3-1.21-.27-1.17,5.29c-.27,1.23-1.23,1.6-2.18,1.39-.95-.21-1.65-.94-1.38-2.17l1.17-5.29-1.21-.27-1.17,5.3c-.41,1.85.72,3.22,2.33,3.58,1.61.36,3.22-.4,3.63-2.26Z"/>
      <polygon class="cls-1" points="74.83 27.33 77.67 20.78 79.92 21.76 80.37 20.72 74.73 18.27 74.28 19.31 76.53 20.29 73.69 26.83 74.83 27.33"/>
      <path class="cls-1" d="M79.47,24.82c-1.34,1.92-.95,4.53.98,5.88,1.94,1.36,4.54.84,5.88-1.08,1.35-1.93.96-4.57-.98-5.93-1.93-1.35-4.54-.8-5.88,1.12ZM84.69,24.64c1.39.97,1.6,2.88.62,4.27-.97,1.38-2.82,1.82-4.21.84-1.38-.96-1.6-2.85-.63-4.23.98-1.4,2.83-1.85,4.21-.89Z"/>
      <path class="cls-1" d="M21.71,75.79l5.15-1.69-.38-1.17-5.14,1.69c-1.2.39-2-.24-2.3-1.16-.3-.92-.03-1.9,1.17-2.29l5.14-1.69-.39-1.17-5.15,1.69c-1.8.59-2.4,2.26-1.89,3.83.51,1.56,1.99,2.57,3.79,1.98Z"/>
      <polygon class="cls-1" points="28.09 76.41 27.51 75.32 20.22 79.24 22.38 83.25 23.38 82.72 21.8 79.79 28.09 76.41"/>
      <polygon class="cls-1" points="31.84 84.17 32.75 83.51 29.13 78.52 28.22 79.19 29.67 81.18 23.88 85.37 24.61 86.38 30.39 82.18 31.84 84.17"/>
      <path class="cls-1" d="M35.4,89.75c.91-.94,1.3-2.39,0-3.65l-2.26-2.2-5.76,5.93.89.86,2.15-2.21.67.65-.63,3.69,1.06,1.03.59-3.73c1.08.87,2.47.47,3.29-.38ZM31.16,87.7l2.07-2.13,1.37,1.33c.58.56.51,1.37-.09,1.99-.61.63-1.37.74-2.19-.05l-1.16-1.13Z"/>
      <path class="cls-1" d="M32.76,94.93l1.09.71,1.78-1.33,2.89,1.88-.5,2.17,1.09.71,1.9-8.63-1.11-.72-7.13,5.22ZM38.78,95.07l-2.22-1.45,3.08-2.29-.86,3.74Z"/>
      <path class="cls-1" d="M47.15,93.34c-2.17-.88-4.63.23-5.51,2.4-.88,2.17.12,4.65,2.29,5.53,1.21.49,2.49.39,3.51-.18l-.57-1.02c-.73.4-1.65.48-2.49.14-1.57-.64-2.23-2.43-1.59-4,.64-1.58,2.38-2.43,3.94-1.79.84.34,1.44,1.04,1.69,1.84l1.12-.34c-.33-1.12-1.17-2.08-2.39-2.58Z"/>
      <path class="cls-1" d="M53.99,95.23c-2.32-.39-4.44,1.22-4.83,3.54-.39,2.31,1.09,4.5,3.41,4.89,2.33.39,4.46-1.19,4.85-3.5.39-2.32-1.09-4.54-3.42-4.93ZM56.19,99.95c-.28,1.67-1.77,2.85-3.44,2.57-1.66-.28-2.66-1.88-2.38-3.55.28-1.68,1.77-2.89,3.42-2.61,1.67.28,2.68,1.91,2.4,3.59Z"/>
      <polygon class="cls-1" points="63.65 95.73 63.97 101.69 60.08 95.91 58.89 95.98 59.32 104.23 60.55 104.16 60.24 98.15 64.16 103.98 65.32 103.92 64.89 95.66 63.65 95.73"/>
      <path class="cls-1" d="M70.97,98.42l.28,1.02,2.29-.63c.32,1.17-.57,2.37-1.91,2.74-1.62.44-3.23-.59-3.68-2.22-.45-1.64.4-3.38,2.01-3.82.74-.2,1.5-.09,2.13.24l.62-.99c-.88-.48-1.97-.64-3.05-.34-2.27.62-3.52,2.98-2.9,5.25.62,2.25,2.88,3.62,5.19,2.99,2.25-.62,3.4-2.38,2.62-5.21l-3.6.99Z"/>
      <polygon class="cls-1" points="78.37 98.91 77.31 96.8 80.21 95.33 79.7 94.31 76.8 95.78 75.67 93.54 79 91.86 78.49 90.85 74.07 93.08 77.79 100.46 82.31 98.18 81.8 97.18 78.37 98.91"/>
      <polygon class="cls-1" points="84.61 95.28 80.43 89.48 79.43 90.21 84.27 96.92 87.97 94.25 87.31 93.33 84.61 95.28"/>
      <path class="cls-1" d="M85.34,85.39l3.78,7.99.9-.93-.97-2,2.39-2.48,2.04.9.9-.93-8.12-3.5-.92.95ZM90.38,87.5l-1.84,1.91-1.67-3.46,3.51,1.55Z"/>
      <path class="cls-1" d="M95.8,78.28c-1.99-1.26-4.25-1.06-5.51.93l-1.73,2.71,6.98,4.44,1.73-2.71c1.27-2,.51-4.11-1.47-5.37ZM96.31,83.05l-1.06,1.67-5.08-3.23,1.06-1.67c.89-1.4,2.48-1.4,3.9-.49,1.42.9,2.07,2.32,1.18,3.72Z"/>
      <path class="cls-1" d="M99.16,69.32c-2.22-.78-4.66.31-5.45,2.54-.78,2.22.45,4.58,2.67,5.37,2.21.78,4.62-.31,5.41-2.53.78-2.23-.42-4.6-2.62-5.38ZM100.7,74.31c-.56,1.58-2.31,2.3-3.91,1.74-1.61-.57-2.55-2.23-1.99-3.82.56-1.6,2.34-2.32,3.95-1.75,1.6.56,2.51,2.23,1.95,3.83Z"/>
    </g>
    <g>
      <path class="cls-2" d="M50.47,54.62c.34.2.42.24.58.24.33,0,.5-.23.55-.43.05-.2.01-.49-.27-.65l-1.38-.77,1.08-.44c.14-.06.25-.17.31-.31.06-.14.06-.3,0-.44-.12-.29-.46-.43-.75-.31l-1.93.79-.05-.03-2.64-1.48,2.69-1.51.05.02c.72.29,1.17.48,1.46.6.49.21.51.21.63.21.33,0,.52-.23.56-.46.04-.23-.04-.52-.34-.64l-1.08-.44,1.38-.77c.13-.07.23-.2.27-.34s.02-.3-.05-.44c-.08-.13-.2-.23-.34-.27-.15-.04-.3-.02-.44.05l-1.38.77.19-1.16c.02-.15-.01-.3-.1-.43-.09-.12-.22-.21-.37-.23-.32-.05-.61.16-.66.48l-.33,2.06-.05.03-2.68,1.5v-3.13l1.63-1.3c.25-.2.29-.56.09-.81-.1-.12-.23-.2-.38-.21-.14-.02-.3.02-.42.12l-.92.73v-1.58c0-.32-.26-.58-.57-.58s-.57.26-.57.58v1.58l-.92-.73c-.12-.09-.27-.14-.42-.12-.15.02-.29.09-.39.21-.09.12-.14.27-.12.42.02.15.09.29.21.39l1.63,1.3v3.13l-.17-.1-2.56-1.43-.33-2.06c-.05-.31-.35-.53-.66-.48-.31.05-.53.35-.47.66l.19,1.16-1.38-.77c-.13-.08-.29-.1-.44-.05-.15.04-.27.14-.34.27-.08.13-.09.29-.05.44.04.15.14.27.27.34l1.38.77-1.08.44c-.29.12-.43.46-.31.75.06.14.17.25.31.31.14.06.3.06.44,0l1.93-.79.05.03,2.64,1.48-2.69,1.51-.05-.02-1.88-.77c-.29-.12-.63.02-.75.31-.06.14-.06.3,0,.44s.17.25.31.31l1.08.44-1.38.77c-.29.16-.33.45-.27.65.05.2.23.43.56.43.16,0,.24-.05.58-.24l.04-.02c.19-.11.45-.26.84-.47l.2-.11-.19,1.15c-.03.17.02.33.13.46s.27.2.44.2c.28,0,.52-.2.57-.48l.33-2.06.05-.03,2.68-1.5v3.13l-1.63,1.3c-.12.1-.2.23-.21.38-.02.15.03.3.12.42.1.12.23.2.39.21.14.01.3-.03.42-.12l.92-.73v1.58c0,.32.26.57.57.57s.57-.26.57-.57v-1.57l.18.13c.2.15.35.27.48.38h.02c.26.24.39.33.6.33.3,0,.48-.2.54-.39.07-.19.05-.45-.18-.64l-1.63-1.3v-3.13l.17.1,2.56,1.43.33,2.06c.05.28.28.48.57.48.17,0,.33-.07.44-.2.11-.13.16-.3.13-.46l-.19-1.15.2.11c.41.22.68.38.88.49Z"/>
      <path class="cls-2" d="M59.11,63.41v5.52l-.04.02-1.12.64c-1.84,1.06-2.98,3.03-2.98,5.14,0,3.27,2.66,5.93,5.93,5.93s5.93-2.66,5.93-5.93c0-2.12-1.14-4.09-2.98-5.14l-1.16-.67v-5.52h-3.58ZM63.29,70.55c1.5.86,2.43,2.46,2.43,4.18,0,2.66-2.16,4.82-4.82,4.82s-4.82-2.16-4.82-4.82c0-1.72.93-3.32,2.43-4.18l1.12-.64c.37-.21.59-.6.59-1.03v-4.37h1.37v4.37c0,.42.23.82.59,1.03l1.12.64Z"/>
      <path class="cls-2" d="M60.9,37.67c-2.56,0-4.65,2.09-4.65,4.65v24.96l-.04.02c-2.53,1.6-4.1,4.45-4.1,7.43,0,4.84,3.94,8.79,8.79,8.79s8.79-3.94,8.79-8.79c0-2.99-1.57-5.83-4.1-7.43l-.04-.02v-24.96c0-2.56-2.09-4.65-4.65-4.65ZM68.58,74.74c0,4.23-3.44,7.68-7.68,7.68s-7.68-3.44-7.68-7.68c0-2.74,1.48-5.29,3.86-6.66.17-.1.28-.28.28-.48v-6.84h3.54c.31,0,.55-.25.55-.55s-.25-.55-.55-.55h-3.54v-2.03h3.54c.31,0,.55-.25.55-.55s-.25-.55-.55-.55h-3.54v-2.03h3.54c.31,0,.55-.25.55-.55s-.25-.55-.55-.55h-3.54v-2.03h3.54c.31,0,.55-.25.55-.55s-.25-.55-.55-.55h-3.54v-2.03h3.54c.31,0,.55-.25.55-.55s-.25-.55-.55-.55h-3.54v-2.03h3.54c.31,0,.55-.25.55-.55s-.25-.55-.55-.55h-3.54v-1.64c0-1.95,1.59-3.54,3.54-3.54s3.54,1.59,3.54,3.54v25.27c0,.2.11.38.28.48,2.38,1.37,3.86,3.92,3.86,6.66Z"/>
    </g>
  </g>
</svg>