<?xml version="1.0" encoding="UTF-8"?>
<svg id="DVDJ_Tempo_de_fermentação" data-name="DVDJ Tempo de fermentação" xmlns="http://www.w3.org/2000/svg" viewBox="0 0 96 96">
  <defs>
    <style>
      .cls-1, .cls-2 {
        fill: #e67e17;
      }

      .cls-2 {
        fill-rule: evenodd;
      }
    </style>
  </defs>
  <path class="cls-1" d="M48,9.09c21.45,0,38.91,17.46,38.91,38.91s-17.45,38.91-38.91,38.91S9.09,69.46,9.09,48,26.55,9.09,48,9.09M48,6.39C25.03,6.39,6.39,25.03,6.39,48s18.64,41.61,41.61,41.61,41.61-18.64,41.61-41.61S70.97,6.39,48,6.39h0Z"/>
  <path class="cls-2" d="M61.85,61.15c.37.3.75.36,1.01.36.5,0,.96-.22,1.26-.6.56-.7.45-1.72-.25-2.28l-14.25-11.4v-23c0-.9-.73-1.62-1.62-1.62s-1.62.73-1.62,1.62v23.78c0,.49.22.95.62,1.27l14.86,11.88Z"/>
</svg>