<?xml version="1.0" encoding="UTF-8"?>
<svg id="DVDJ_Pães_de_massa_crua" data-name="DVDJ Pães de massa crua" xmlns="http://www.w3.org/2000/svg" viewBox="0 0 120 120">
  <defs>
    <style>
      .cls-1 {
        fill: #fffceb;
      }
    </style>
  </defs>
  <g id="Preparo_em_Airfryer" data-name="Preparo em Airfryer">
    <path class="cls-1" d="M119.85,60.4v-.08c0-3.29-1.62-5.45-3.24-7.61-.58-.77-1.16-1.54-1.19-1.71-.02-.14.28-1.03.59-1.91v-.02c.87-2.53,1.74-5.05.71-8.21l-.03-.08c-1.09-3.16-3.31-4.66-5.54-6.17-.82-.55-1.63-1.11-1.69-1.21-.05-.1-.05-1.06-.05-2.02,0-2.67.01-5.34-2.02-8.02l-.04-.06c-2.05-2.62-4.65-3.33-7.25-4.03-.94-.25-1.89-.51-1.99-.6-.11-.1-.41-.98-.71-1.87-.86-2.54-1.73-5.07-4.51-6.94l-.07-.06c-2.77-1.8-5.46-1.62-8.16-1.44-.96.06-1.93.13-2.09.06-.12-.05-.69-.8-1.27-1.54-1.65-2.12-3.29-4.25-6.5-5.11h-.08c-3.24-.83-5.7.21-8.17,1.24-.91.38-1.83.77-1.96.76-.13-.01-.92-.53-1.71-1.05C60.66,1.26,58.43-.21,55.08.02h-.08c-3.32.29-5.32,2.07-7.33,3.86-.73.65-1.46,1.3-1.6,1.33-.12.03-1.04-.21-1.96-.44-2.59-.66-5.17-1.32-8.27-.01l-.08.03c-3.02,1.34-4.34,3.68-5.66,6.03-.48.85-.96,1.7-1.08,1.78-.13.08-1.06.16-1.99.23-2.68.22-5.36.43-7.84,2.65l-.06.07c-2.45,2.27-2.93,4.9-3.42,7.55-.18.96-.35,1.92-.44,2.03-.09.11-.94.49-1.8.86h-.02c-2.45,1.07-4.9,2.14-6.54,5.07l-.04.06c-1.57,2.93-1.18,5.58-.78,8.23.15.98.29,1.96.25,2.09-.04.11-.73.75-1.43,1.38-1.98,1.81-3.95,3.62-4.55,6.93v.08c-.55,3.27.69,5.65,1.93,8.03.45.86.9,1.73.9,1.89,0,.15-.45.97-.89,1.79-1.28,2.36-2.57,4.72-2.06,8.01l.03.08c.56,3.29,2.5,5.13,4.44,6.98.71.68,1.42,1.35,1.46,1.47.05.14-.11,1.08-.27,2.02-.44,2.63-.89,5.26.66,8.21l.05.08c1.59,2.92,4.03,4.04,6.47,5.16.88.4,1.77.81,1.87.94.06.08.22,1.03.37,1.97.43,2.63.87,5.25,3.32,7.57l.07.06c2.47,2.26,5.14,2.53,7.8,2.79.98.1,1.97.2,2.05.25v.02c.1.07.55.9.99,1.72,1.27,2.36,2.54,4.72,5.6,6.11l.08.03c3.01,1.31,5.63.7,8.25.08.94-.22,1.88-.44,2.05-.4.13.03.83.68,1.52,1.32,1.97,1.82,3.93,3.64,7.26,3.96h.08c3.32.26,5.58-1.17,7.86-2.6.82-.52,1.64-1.03,1.81-1.05.14-.01,1,.37,1.85.75,2.45,1.08,4.89,2.16,8.16,1.38h.08c3.21-.83,4.89-2.93,6.59-5.03.61-.76,1.22-1.52,1.36-1.58.13-.06,1.07.02,2.01.1,2.67.23,5.33.45,8.14-1.33l.08-.05c2.78-1.83,3.7-4.36,4.61-6.89.33-.91.66-1.81.76-1.94h0c.1-.08,1.01-.31,1.93-.54,2.58-.65,5.16-1.3,7.27-3.93l.06-.07c2.03-2.62,2.08-5.31,2.12-8.01.02-.96.03-1.92.11-2.06.07-.13.86-.64,1.64-1.15,2.25-1.46,4.49-2.92,5.62-6.08l.03-.08c1.06-3.12.23-5.68-.6-8.24-.3-.92-.6-1.85-.57-2.02.02-.14.6-.87,1.17-1.61,1.65-2.11,3.3-4.22,3.34-7.56ZM63.85,109.85c-27.53,2.13-51.57-18.47-53.7-46C8.02,36.32,28.62,12.28,56.15,10.15c27.53-2.13,51.57,18.47,53.7,46,2.13,27.53-18.47,51.57-46,53.7Z"/>
    <g>
      <path class="cls-1" d="M43.61,75.81c0,.35.23.59.59.59h31.62c.35,0,.59-.23.59-.59v-25.17h-32.79v25.17ZM46.53,55.32c0-1,.76-1.76,1.76-1.76h23.42c1,0,1.76.76,1.76,1.76v16.98c0,1-.76,1.76-1.76,1.76h-23.42c-1,0-1.76-.76-1.76-1.76v-16.98Z"/>
      <path class="cls-1" d="M75.87,43.61h-31.67c-.35,0-.59.23-.59.59v5.27h32.79v-5.27c0-.29-.23-.53-.53-.59ZM52.31,47.89h-4.52c-.77,0-1.36-.59-1.36-1.36s.59-1.36,1.36-1.36h4.52c.77,0,1.36.59,1.36,1.36s-.59,1.36-1.36,1.36ZM59.14,47.32c-.55.55-1.42.55-1.97,0-.55-.55-.55-1.37,0-1.92.55-.5,1.42-.5,1.97,0,.55.55.55,1.37,0,1.92ZM64.99,47.32c-.55.55-1.42.55-1.97,0-.55-.55-.55-1.37,0-1.92.55-.5,1.42-.5,1.97,0,.55.55.55,1.37,0,1.92Z"/>
      <path class="cls-1" d="M48.29,72.88h23.42c.35,0,.59-.23.59-.59v-16.98c0-.35-.23-.59-.59-.59h-23.42c-.35,0-.59.23-.59.59v16.98c0,.35.23.59.59.59ZM64.98,66.67c.29-.64.82-1.41,1.46-2.22.06-.12.18-.23.29-.41.47-.59.41-1.23.06-1.87-.35-.7-1-1.29-1.46-1.58-.29-.18-.35-.53-.18-.82.18-.29.53-.35.82-.18.59.35,1.35,1.05,1.82,1.93.47.88.7,1.99-.12,3.1-.12.18-.23.35-.35.47-.59.82-1.05,1.46-1.29,1.99-.12.29-.18.53-.18.7s.06.41.23.64c.23.29.18.64-.12.82-.23.18-.64.12-.76,0-.29-.41-.47-.82-.47-1.29-.06-.47.06-.88.23-1.29ZM58.48,66.56c.29-.64.82-1.41,1.46-2.22.12-.12.23-.29.29-.41.47-.59.35-1.23.06-1.87-.35-.64-1-1.23-1.46-1.58-.29-.18-.35-.53-.18-.82s.53-.35.82-.18c.59.41,1.35,1.11,1.82,1.93.47.88.7,2.05-.12,3.1-.12.18-.23.29-.35.47-.64.88-1.05,1.46-1.29,1.99-.12.29-.18.53-.18.7s.06.41.23.64c.18.29.12.64-.12.82-.18.29-.59.23-.76,0-.29-.41-.47-.82-.47-1.29s.06-.88.23-1.29ZM52.68,66.67c.29-.64.82-1.41,1.46-2.22.06-.12.18-.23.29-.41.47-.59.41-1.23.06-1.87-.35-.7-1-1.29-1.46-1.58-.29-.18-.35-.53-.18-.82.18-.29.53-.35.82-.18.59.35,1.35,1.05,1.82,1.93.47.88.7,1.99-.12,3.1-.12.18-.23.35-.35.47-.59.82-1.05,1.46-1.29,1.99-.12.29-.18.53-.18.7s.06.41.23.64c.23.29.18.64-.12.82-.23.18-.64.12-.76,0-.29-.41-.47-.82-.47-1.29-.06-.47.06-.88.23-1.29Z"/>
      <path class="cls-1" d="M60,30.22c-16.45,0-29.79,13.33-29.79,29.78s13.34,29.78,29.79,29.78,29.79-13.33,29.79-29.78c0-16.45-13.34-29.78-29.79-29.78ZM77.56,75.81c0,1-.76,1.76-1.76,1.76h-31.62c-1,0-1.76-.76-1.76-1.76v-31.61c0-1,.76-1.76,1.76-1.76h31.62c1,0,1.76.76,1.76,1.76v31.61Z"/>
    </g>
    <g>
      <path class="cls-1" d="M31.92,37.65l-2.32-1.99,1.35-1.58c1.16-1.35.68-2.74-.33-3.6-.99-.85-2.47-1.14-3.63.21l-2.16,2.51,6.28,5.38.8-.94ZM26.5,33l1.34-1.56c.6-.7,1.42-.5,1.98-.02s.85,1.25.23,1.98l-1.3,1.52-2.24-1.92Z"/>
      <path class="cls-1" d="M36.59,32.79l-1.92-2.41.73-.58,3.58,1.09,1.15-.92-3.62-1.06c1-.96.78-2.39.04-3.32-.81-1.02-2.2-1.59-3.62-.46l-2.47,1.97,5.15,6.47.97-.77ZM32.14,27.21l1.49-1.19c.63-.5,1.42-.33,1.96.34.55.68.56,1.46-.33,2.17l-1.27,1.01-1.85-2.33Z"/>
      <polygon class="cls-1" points="45.65 27 45.12 26.01 41.73 27.81 40.62 25.72 43.49 24.2 42.95 23.19 40.08 24.72 38.91 22.5 42.2 20.75 41.67 19.76 37.3 22.08 41.18 29.38 45.65 27"/>
      <path class="cls-1" d="M47.95,26.19l-.92-2.92,1.98-.62c1.69-.53,2.02-1.97,1.62-3.23-.39-1.25-1.49-2.27-3.19-1.74l-3.16.99,2.48,7.88,1.18-.37ZM45.81,19.38l1.96-.62c.88-.28,1.47.33,1.69,1.03s.06,1.52-.85,1.8l-1.91.6-.89-2.81Z"/>
      <path class="cls-1" d="M53.58,22.55l3.42-.42,1.02,1.98,1.29-.16-4.11-7.82-1.31.16-2.09,8.59,1.29-.16.5-2.17ZM54.71,17.7l1.75,3.41-2.63.33.88-3.73Z"/>
      <path class="cls-1" d="M61.38,21.05l.93.07,1.9,3.23,1.47.1-1.95-3.23c1.39-.04,2.19-1.23,2.28-2.42.09-1.31-.55-2.66-2.36-2.79l-3.15-.22-.58,8.25,1.23.09.22-3.08ZM61.66,17l1.91.13c.8.06,1.27.71,1.21,1.58-.06.87-.57,1.45-1.71,1.37l-1.62-.11.21-2.97Z"/>
      <path class="cls-1" d="M70.14,25.74c2.27.67,4.57-.65,5.23-2.89.67-2.25-.54-4.64-2.81-5.31-2.25-.67-4.55.68-5.22,2.93-.66,2.24.54,4.6,2.8,5.27ZM68.53,20.82c.48-1.63,2.1-2.66,3.71-2.18,1.62.48,2.43,2.22,1.95,3.85-.48,1.62-2.1,2.62-3.72,2.14-1.61-.48-2.42-2.19-1.94-3.81Z"/>
      <polygon class="cls-1" points="82.64 30.6 79.43 28.49 80.73 26.52 83.44 28.31 84.07 27.35 81.35 25.57 82.73 23.47 85.85 25.52 86.47 24.58 82.33 21.86 77.79 28.76 82.02 31.55 82.64 30.6"/>
      <polygon class="cls-1" points="83.45 32.61 88.3 29.01 86.32 34.31 87.05 35.08 92.43 33.36 88.58 38.02 89.42 38.9 94.72 32.49 93.96 31.69 87.69 33.72 90.05 27.56 89.29 26.76 82.6 31.72 83.45 32.61"/>
      <polygon class="cls-1" points="19.51 63.93 20.63 63.88 20.5 60.99 23.01 60.87 23.18 64.52 24.3 64.47 24.08 59.59 15.82 59.97 15.87 61.2 19.37 61.04 19.51 63.93"/>
      <path class="cls-1" d="M21.98,73.21c2.29-.54,3.77-2.77,3.23-5.07-.54-2.29-2.84-3.62-5.13-3.09-2.28.53-3.73,2.75-3.2,5.04.54,2.3,2.83,3.65,5.11,3.12ZM18,69.82c-.38-1.64.71-3.19,2.36-3.57,1.66-.39,3.35.51,3.73,2.15.38,1.65-.73,3.21-2.39,3.6-1.65.38-3.32-.53-3.7-2.18Z"/>
      <path class="cls-1" d="M26.37,78.98c1.19-.55,2.06-1.76,1.3-3.41l-1.33-2.86-7.5,3.48.52,1.12,2.8-1.3.39.85-1.9,3.22.62,1.34,1.88-3.27c.7,1.2,2.13,1.32,3.21.82ZM25.84,74.31l.8,1.73c.34.73-.01,1.46-.79,1.82-.79.37-1.55.2-2.03-.83l-.68-1.47,2.7-1.25Z"/>
      <polygon class="cls-1" points="31.85 82.31 27 85.79 29.77 79.4 29.07 78.43 22.35 83.24 23.07 84.25 27.97 80.74 25.18 87.18 25.86 88.13 32.57 83.31 31.85 82.31"/>
      <path class="cls-1" d="M30.03,86.85c-1.57,1.74-1.51,4.38.24,5.96,1.75,1.59,4.4,1.4,5.97-.34,1.58-1.74,1.52-4.42-.23-6-1.74-1.58-4.4-1.36-5.98.38ZM35.33,91.64c-1.14,1.25-3.03,1.45-4.28.31-1.25-1.13-1.23-3.02-.09-4.28,1.14-1.26,3.04-1.48,4.29-.36,1.25,1.14,1.23,3.06.09,4.32Z"/>
      <path class="cls-1" d="M44.89,92.38c-2.1-1.03-4.63-.08-5.66,2.02s-.2,4.65,1.91,5.67c1.18.57,2.45.56,3.51.06l-.5-1.06c-.76.35-1.68.37-2.5-.03-1.52-.74-2.05-2.58-1.31-4.1.75-1.53,2.54-2.26,4.05-1.52.82.4,1.37,1.14,1.56,1.95l1.14-.26c-.26-1.14-1.03-2.16-2.21-2.73Z"/>
      <path class="cls-1" d="M51.32,94.66c-2.28-.57-4.52.88-5.09,3.16-.57,2.27.74,4.57,3.02,5.14,2.29.57,4.54-.85,5.1-3.12.57-2.28-.74-4.61-3.04-5.18ZM53.16,99.55c-.41,1.64-1.99,2.71-3.63,2.3-1.63-.41-2.51-2.08-2.1-3.73.41-1.65,1.98-2.75,3.61-2.34,1.64.41,2.53,2.11,2.12,3.77Z"/>
      <polygon class="cls-1" points="60.47 101.88 57.08 95.8 55.88 95.76 55.63 104.02 56.86 104.06 57.05 98.04 60.47 104.17 61.64 104.21 61.89 95.94 60.65 95.91 60.47 101.88"/>
      <polygon class="cls-1" points="66.07 101.65 63.4 95.76 62.14 95.94 65.81 103.76 66.95 103.59 68.22 95.06 66.96 95.24 66.07 101.65"/>
      <polygon class="cls-1" points="71.81 101.38 71.11 99.12 74.21 98.15 73.87 97.06 70.77 98.03 70.02 95.64 73.59 94.53 73.25 93.45 68.52 94.92 70.98 102.82 75.81 101.31 75.48 100.24 71.81 101.38"/>
      <polygon class="cls-1" points="78.18 90.97 80.96 96.27 75.01 92.63 73.95 93.19 77.79 100.51 78.88 99.94 76.09 94.6 82.08 98.26 83.12 97.72 79.28 90.4 78.18 90.97"/>
      <path class="cls-1" d="M87.59,93.15c-1.31,1.06-3.2.77-4.27-.54-1.07-1.32-.97-3.26.33-4.32.71-.57,1.61-.76,2.43-.59l.25-1.14c-1.14-.25-2.39.02-3.41.85-1.82,1.47-2.03,4.16-.56,5.98s4.13,2.14,5.94.67c1.02-.82,1.54-1.99,1.53-3.16h-1.17c0,.84-.37,1.68-1.08,2.25Z"/>
      <rect class="cls-1" x="88.54" y="83.25" width="1.24" height="8.26" transform="translate(-35.57 92.57) rotate(-46.81)"/>
      <path class="cls-1" d="M95.4,79.14c-1.94-1.33-4.58-.92-5.92,1.04-1.33,1.94-.76,4.55,1.18,5.88,1.93,1.32,4.55.91,5.88-1.04,1.34-1.95.79-4.55-1.14-5.88ZM95.59,84.36c-.95,1.39-2.83,1.62-4.23.67-1.41-.96-1.88-2.82-.93-4.21.96-1.4,2.87-1.63,4.27-.67,1.4.96,1.84,2.81.89,4.2Z"/>
      <polygon class="cls-1" points="93.9 71.89 99.43 74.15 92.55 75.2 92.09 76.31 99.75 79.44 100.21 78.29 94.64 76.02 101.58 74.95 102.02 73.87 94.36 70.75 93.9 71.89"/>
      <path class="cls-1" d="M95.06,67.65l7.5,4.68.25-1.27-1.9-1.16.67-3.38,2.2-.35.25-1.27-8.71,1.45-.26,1.29ZM100.44,66.7l-.52,2.6-3.27-2.01,3.79-.59Z"/>
      <polygon class="cls-1" points="103.07 58.81 102.96 62.14 95.82 61.89 95.78 63.13 104.04 63.41 104.2 58.85 103.07 58.81"/>
    </g>
  </g>
</svg>