<?xml version="1.0" encoding="UTF-8"?>
<svg id="DVDJ_Preparo_em_forno_convencional" data-name="DVDJ Preparo em forno convencional" xmlns="http://www.w3.org/2000/svg" viewBox="0 0 96 96">
  <defs>
    <style>
      .cls-1 {
        fill: #fffceb;
      }
    </style>
  </defs>
  <path class="cls-1" d="M45.66,72.98c.21-.01.5-.09.7-.41l.06-.07c.54-.41.65-1.22.25-1.89-.58-.77-.67-1.5-.67-1.87,0-.51.16-1.16.49-1.99.62-1.4,1.63-2.87,3.51-5.44.16-.23.32-.44.48-.64.15-.19.31-.39.46-.62,2.4-3.08,1.22-6.42.3-8.14-1.55-2.71-4.09-4.62-4.83-5.14-.32-.19-.69-.27-1.03-.2-.35.07-.63.28-.82.6-.2.34-.28.71-.21,1.05.07.35.28.63.6.82.86.65,2.94,2.33,4.05,4.37.64,1.41,1.31,3.48-.18,5.34-.13.28-.46.78-.81,1.13-1.92,2.45-3.21,4.4-3.91,5.94-.42.98-.61,2.03-.61,3.38,0,1.11.39,2.17,1.22,3.34.21.28.59.46.95.43Z"/>
  <path class="cls-1" d="M16.33,85.75h63.33c2.57,0,4.5-1.93,4.5-4.5v-45.92c0-2.57-1.93-4.5-4.5-4.5H16.33c-2.57,0-4.5,1.93-4.5,4.5v45.92c0,2.57,1.93,4.5,4.5,4.5ZM14.5,35.33c0-1.08.75-1.83,1.83-1.83h63.33c1.08,0,1.83.75,1.83,1.83v45.92c0,1.1-.74,1.83-1.83,1.83H16.33c-1.1,0-1.83-.74-1.83-1.83v-45.92Z"/>
  <path class="cls-1" d="M29,9.58c1.18,0,2,.82,2,2s-.82,2-2,2h-15.83c-1.18,0-2-.82-2-2s.82-2,2-2h15.83M29,7.08h-15.83c-2.57,0-4.5,1.93-4.5,4.5s1.93,4.5,4.5,4.5h15.83c2.57,0,4.5-1.93,4.5-4.5s-1.93-4.5-4.5-4.5h0Z"/>
  <path class="cls-1" d="M29.05,72.87c.21.2,1.18.34,1.7-.05h.02c.31-.2.51-.48.57-.79.06-.35-.05-.73-.32-1.07-.6-.8-.69-1.53-.69-1.9,0-.51.16-1.16.49-1.99.62-1.38,1.79-3.02,3.27-5.09l.24-.34c.33-.33.64-.8.95-1.26,1.79-2.43,1.89-5.16.3-8.14-1.3-2.43-3.4-4.28-4.82-5.13-.26-.16-.53-.23-.79-.23-.44,0-.84.21-1.08.62-.42.7-.25,1.49.39,1.87,1.25.78,3.06,2.4,4.05,4.38,1.1,2.01,1.04,3.81-.19,5.33-.13.2-.27.38-.4.55-.15.19-.28.36-.36.52-1.97,2.51-3.25,4.46-3.95,6.01-.39.92-.78,2.04-.61,3.35,0,1.14.39,2.2,1.22,3.37Z"/>
  <path class="cls-1" d="M62.3,72.87c.21.2,1.18.34,1.7-.05h.02c.31-.2.51-.48.57-.79.06-.35-.05-.73-.32-1.07-.6-.8-.69-1.53-.69-1.9,0-.51.16-1.16.49-1.99.62-1.38,1.79-3.02,3.27-5.09l.24-.34c.33-.33.64-.8.95-1.26,1.79-2.43,1.89-5.16.3-8.14-1.3-2.43-3.4-4.28-4.82-5.13-.26-.16-.53-.23-.79-.23-.44,0-.84.21-1.08.62-.2.34-.27.71-.21,1.05.07.35.28.63.6.82,1.25.78,3.06,2.4,4.05,4.38,1.1,2.01,1.04,3.81-.19,5.33-.13.2-.27.38-.4.55-.15.19-.28.36-.36.52-1.97,2.51-3.25,4.46-3.95,6.01-.39.92-.78,2.04-.61,3.35,0,1.14.39,2.2,1.22,3.37Z"/>
  <path class="cls-1" d="M90.75.75H5.25C2.68.75.75,2.68.75,5.25v85.5c0,2.57,1.93,4.5,4.5,4.5h85.5c2.57,0,4.5-1.93,4.5-4.5V5.25c0-2.57-1.93-4.5-4.5-4.5ZM92.58,90.75c0,1.08-.75,1.83-1.83,1.83H5.25c-1.1,0-1.83-.74-1.83-1.83V22.42h89.17v68.33ZM92.58,19.75H3.42V5.25c0-1.1.74-1.83,1.83-1.83h85.66c.99.19,1.67.96,1.67,1.83v14.5Z"/>
  <path class="cls-1" d="M43.01,9.22c.56,0,1.09.2,1.5.55.77.81.76,1.92-.04,2.72-.41.41-.91.62-1.46.62s-1.05-.21-1.46-.62c-.4-.4-.61-.88-.61-1.38,0-.48.2-.94.57-1.33.41-.36.94-.55,1.51-.55M43.01,6.72c-1.16,0-2.33.42-3.24,1.25-1.79,1.79-1.79,4.49,0,6.29.87.87,2.02,1.35,3.23,1.35s2.36-.48,3.23-1.35c1.79-1.79,1.79-4.5,0-6.29-.91-.83-2.07-1.24-3.23-1.24h0Z"/>
  <path class="cls-1" d="M58.85,9.22c.56,0,1.09.19,1.5.55.77.81.76,1.92-.04,2.72-.4.4-.92.63-1.46.63s-1.06-.22-1.46-.62c-.4-.4-.61-.88-.61-1.38,0-.48.2-.94.57-1.33.41-.36.94-.55,1.51-.55M58.85,6.72c-1.16,0-2.33.42-3.24,1.25-1.79,1.79-1.79,4.49,0,6.29.91.9,2.07,1.36,3.23,1.36s2.32-.45,3.23-1.36c1.79-1.79,1.79-4.5,0-6.29-.91-.83-2.07-1.24-3.23-1.24h0Z"/>
</svg>