<?xml version="1.0" encoding="UTF-8"?>
<svg id="DVDJ_Preparo_em_airfryer" data-name="DVDJ Preparo em airfryer" xmlns="http://www.w3.org/2000/svg" viewBox="0 0 96 96">
  <defs>
    <style>
      .cls-1 {
        fill: #fffceb;
      }
    </style>
  </defs>
  <path class="cls-1" d="M48,17.54c-7.73,0-14.02,6.29-14.02,14.03s6.29,14.02,14.02,14.02,14.03-6.29,14.03-14.02-6.29-14.03-14.03-14.03ZM48,43.27c-6.45,0-11.7-5.25-11.7-11.7s5.25-11.71,11.7-11.71,11.71,5.25,11.71,11.71-5.25,11.7-11.71,11.7Z"/>
  <path class="cls-1" d="M79.12,5.69v-.15c0-6.76-60.89-6.58-62.01-.34-.05.06-.09.13-.13.2-11.07,26.75-11.3,55.95-1.77,82.1h0s0,.02,0,.02c1.17,3.21,4.02,5.52,7.44,6.05,8.41,1.28,16.87,1.93,25.33,1.93s16.93-.65,25.34-1.93c3.42-.53,6.27-2.84,7.44-6.05,9.38-25.7,9.45-54.82-1.65-81.83ZM48.11,2.84c15.65,0,25.89,1.48,28.33,2.71-.21.1-.45.21-.72.31h0c-8.62,3.18-46.59,3.19-55.22,0h0c-.27-.09-.51-.2-.72-.31,2.45-1.22,12.69-2.71,28.34-2.71ZM78.61,86.71c-.88,2.42-3.04,4.17-5.63,4.56-16.57,2.54-33.37,2.54-49.95,0-2.59-.39-4.74-2.14-5.63-4.56-3.75-10.31-6.01-21.28-6.57-32.59,9.49,2.26,19.03,3.62,28.6,4.13v22.58c0,4.73,3.85,8.57,8.57,8.57s8.57-3.85,8.57-8.57v-22.59c9.55-.52,19.09-1.87,28.6-4.12-.54,11.15-2.75,22.13-6.56,32.59ZM42.12,80.84v-28.09c0-1.54,1.25-2.79,2.79-2.79h6.18c1.53,0,2.78,1.25,2.78,2.79v28.09c0,3.24-2.63,5.87-5.87,5.87s-5.87-2.63-5.87-5.87ZM56.57,55.93v-3.18c0-3.02-2.46-5.49-5.48-5.49h-6.18c-3.02,0-5.49,2.47-5.49,5.49v3.19c-9.6-.53-19.19-1.93-28.71-4.24-.41-14.99,2.24-30,7.92-44.18,5.22,2.65,23.58,3.05,29.47,3.05s23.87-.41,29.29-2.97c5.65,14.16,8.29,29.15,7.89,44.09-9.55,2.3-19.13,3.7-28.72,4.23Z"/>
  <path class="cls-1" d="M48,26.21c2.95,0,5.36,2.4,5.36,5.36s-2.4,5.35-5.36,5.35-5.35-2.4-5.35-5.35,2.4-5.36,5.35-5.36M48,23.71c-4.33,0-7.85,3.52-7.85,7.86s3.52,7.85,7.85,7.85,7.86-3.52,7.86-7.85-3.53-7.86-7.86-7.86h0Z"/>
</svg>