<?xml version="1.0" encoding="UTF-8"?>
<svg id="DVDJ_Produto_ultracongelado" data-name="DVDJ Produto ultracongelado" xmlns="http://www.w3.org/2000/svg" viewBox="0 0 96 96">
  <defs>
    <style>
      .cls-1 {
        fill: #fffceb;
      }
    </style>
  </defs>
  <path class="cls-1" d="M76.66,61.72V10.26c0-5.38-4.38-9.76-9.76-9.76s-9.76,4.38-9.76,9.76v51.46c-5.29,3.34-8.54,9.2-8.54,15.48,0,10.09,8.21,18.3,18.3,18.3s18.3-8.21,18.3-18.3c0-6.28-3.25-12.14-8.54-15.48ZM66.91,92.9c-8.66,0-15.7-7.04-15.7-15.7,0-5.6,3.02-10.82,7.89-13.62.4-.23.65-.66.65-1.13v-13.97h7.16c.72,0,1.3-.58,1.3-1.3s-.58-1.3-1.3-1.3h-7.16v-3.88h7.16c.72,0,1.3-.58,1.3-1.3s-.58-1.3-1.3-1.3h-7.16v-3.88h7.16c.72,0,1.3-.58,1.3-1.3s-.58-1.3-1.3-1.3h-7.16v-3.88h7.16c.72,0,1.3-.58,1.3-1.3s-.58-1.3-1.3-1.3h-7.16v-3.88h7.16c.72,0,1.3-.58,1.3-1.3s-.58-1.3-1.3-1.3h-7.16v-3.88h7.16c.72,0,1.3-.58,1.3-1.3s-.58-1.3-1.3-1.3h-7.16v-3.23c0-3.95,3.21-7.16,7.16-7.16s7.16,3.21,7.16,7.16v52.19c0,.47.25.89.65,1.13,4.87,2.8,7.89,8.02,7.89,13.62,0,8.66-7.04,15.7-15.7,15.7Z"/>
  <path class="cls-1" d="M73.07,66.44l-2.31-1.33v-11.46s-7.71,0-7.71,0v11.46l-2.31,1.33c-3.84,2.21-6.23,6.33-6.23,10.75,0,6.84,5.56,12.4,12.4,12.4,6.84,0,12.4-5.56,12.4-12.4,0-4.42-2.39-8.54-6.23-10.75ZM66.91,87c-5.4,0-9.8-4.4-9.8-9.8,0-3.5,1.89-6.75,4.93-8.5l2.31-1.33c.81-.46,1.3-1.32,1.3-2.25v-8.86h2.51v8.86c0,.93.5,1.79,1.3,2.25l2.31,1.33c3.04,1.75,4.93,5.01,4.93,8.5,0,5.4-4.4,9.8-9.8,9.8Z"/>
  <path class="cls-1" d="M46.21,35.97l-4.11-2.3,3.33-1.36c.32-.13.58-.38.71-.71s.14-.68,0-1c-.27-.67-1.04-.99-1.71-.72l-5.26,2.16-7.65-4.28,7.64-4.28.19.07c1.9.76,3.07,1.25,3.86,1.58l.13.05c1.26.53,1.31.54,1.59.54.79,0,1.19-.57,1.28-1.06.1-.49-.05-1.17-.79-1.47l-3.33-1.36,4.11-2.3c.31-.17.53-.45.62-.79.1-.34.05-.69-.12-1-.35-.63-1.15-.86-1.79-.5l-4.11,2.3.58-3.55c.12-.71-.37-1.39-1.09-1.51-.72-.11-1.39.38-1.51,1.09l-.91,5.61-7.74,4.33v-8.87l4.45-3.54c.57-.45.66-1.28.21-1.85-.45-.56-1.28-.66-1.85-.21l-2.82,2.24v-4.7c0-.73-.59-1.32-1.31-1.32s-1.31.59-1.31,1.32v4.71l-2.82-2.24c-.27-.22-.61-.32-.97-.28-.35.04-.66.21-.88.49-.22.27-.32.62-.28.97.04.35.21.66.49.88l4.45,3.54v8.87l-7.74-4.33-.91-5.61c-.12-.71-.8-1.21-1.51-1.09-.71.12-1.2.79-1.08,1.51l.58,3.55-4.11-2.3c-.63-.35-1.43-.13-1.79.5-.17.31-.21.66-.12,1s.32.62.62.79l4.11,2.3-3.33,1.36c-.67.28-.99,1.04-.72,1.72.28.67,1.04.99,1.72.72l5.26-2.16,7.65,4.28-7.65,4.28-5.26-2.16c-.67-.27-1.44.05-1.71.72-.27.67.05,1.44.72,1.71l3.33,1.36-4.11,2.3c-.84.47-.67,1.31-.62,1.48s.3.98,1.27.98c.37,0,.53-.09,1.45-.62.54-.31,1.26-.73,2.35-1.31l.95-.5-.57,3.53c-.06.38.05.77.3,1.06.25.29.62.46,1,.46.65,0,1.19-.46,1.29-1.1l.91-5.62.18-.1,7.56-4.23v8.87l-4.45,3.54c-.28.22-.45.53-.49.88-.04.35.06.69.28.97.22.28.53.45.88.49.35.04.69-.06.97-.28l2.82-2.24v4.71c0,.72.59,1.31,1.31,1.31s1.31-.59,1.31-1.31v-4.65l.84.61c.56.41.99.76,1.33,1.05.71.6.98.8,1.46.8.86,0,1.17-.68,1.24-.89s.25-.92-.42-1.46l-4.45-3.54v-8.86l7.74,4.33.91,5.62c.1.64.65,1.1,1.29,1.1.39,0,.75-.17,1-.46.25-.29.36-.68.3-1.06l-.57-3.53.95.5c1.09.58,1.81,1,2.34,1.31.93.54,1.09.63,1.46.63.96,0,1.22-.82,1.27-.98s.21-1.01-.62-1.48Z"/>
</svg>