<?xml version="1.0" encoding="UTF-8"?>
<svg id="DVJD_Pulverize_Água" data-name="DVJD Pulverize Água" xmlns="http://www.w3.org/2000/svg" viewBox="0 0 96 96">
  <defs>
    <style>
      .cls-1 {
        fill: #fffceb;
      }
    </style>
  </defs>
  <path class="cls-1" d="M67.4,27.88c-6.47-10.65-13.66-19.87-17.37-24.41-.5-.61-1.24-.96-2.03-.96s-1.53.35-2.03.96c-3.71,4.55-10.9,13.77-17.37,24.42-8.33,13.73-12.56,25.08-12.56,33.73,0,17.58,14.34,31.89,31.96,31.89s31.96-14.3,31.96-31.89c0-8.66-4.23-20.01-12.56-33.74ZM48,90.8c-16.13,0-29.26-13.09-29.26-29.19,0-8.15,4.09-19.03,12.17-32.33,6.35-10.46,13.41-19.52,17.09-24.04,3.68,4.51,10.74,13.57,17.09,24.03,8.07,13.3,12.17,24.18,12.17,32.33,0,16.09-13.12,29.19-29.26,29.19Z"/>
  <path class="cls-1" d="M52.31,77.97c-12.21-1.26-21.41-10.77-21.41-22.12,0-.65.04-1.33.12-2.02.14-1.31-.76-2.52-2.09-2.8-1.29-.28-2.63.41-3.11,1.6-1.46,3.64-2.19,6.93-2.19,9.78,0,11.81,10.32,21.42,23,21.42,2.06,0,4.11-.25,6.09-.76h0c1.26-.33,2.1-1.47,1.99-2.73-.11-1.24-1.12-2.24-2.4-2.37ZM46.63,81.12c-11.19,0-20.3-8.4-20.3-18.72,0-2.46.65-5.35,1.98-8.56-.07.68-.1,1.36-.1,2.01,0,12.55,9.94,23.08,23.25,24.74-1.58.35-3.2.53-4.83.53Z"/>
</svg>