<?xml version="1.0" encoding="UTF-8"?>
<svg id="DVDJ_Tempo_de_forno" data-name="DVDJ Tempo de forno" xmlns="http://www.w3.org/2000/svg" viewBox="0 0 96 96">
  <defs>
    <style>
      .cls-1 {
        fill: #fffceb;
      }
    </style>
  </defs>
  <path class="cls-1" d="M53.3,13.43v-2.51h1.19c2.93,0,5.32-2.33,5.32-5.19s-2.39-5.19-5.32-5.19h-12.99c-2.94,0-5.32,2.33-5.32,5.19s2.39,5.19,5.32,5.19h1.16v2.51c-5.62.67-10.93,2.4-15.84,5.15l-2.9-3.66c-1.78-2.23-5.12-2.67-7.47-.96-1.14.87-1.86,2.12-2.03,3.52-.17,1.37.21,2.72,1.08,3.8l2.8,3.55c-8.17,7.74-12.83,18.39-12.83,29.43,0,22.72,19.07,41.2,42.51,41.2s42.55-18.48,42.55-41.2c0-20.58-16.25-38.29-37.23-40.83ZM47.98,92.76c-21.95,0-39.81-17.27-39.81-38.5,0-10.68,4.69-20.98,12.86-28.27l.95-.85-4.37-5.54c-.41-.51-.59-1.15-.51-1.79.08-.68.44-1.28.97-1.69.49-.35,1.06-.52,1.62-.52.81,0,1.6.34,2.12,1l4.35,5.5,1.02-.61c5.19-3.1,10.89-4.95,16.95-5.5l1.23-.11v-7.66h-3.86c-1.45,0-2.62-1.12-2.62-2.49s1.18-2.49,2.62-2.49h12.99c1.45,0,2.62,1.12,2.62,2.49s-1.18,2.49-2.62,2.49h-3.89v7.65l1.23.11c20.19,1.86,36,18.67,36,38.27,0,21.23-17.88,38.5-39.85,38.5Z"/>
  <path class="cls-1" d="M48.21,58.43c-2.51,0-4.57-1.99-4.57-4.42v-31.24c-15.89,2.08-28.09,15.29-28.09,31.24,0,17.4,14.57,31.54,32.61,31.54,16.49,0,30.1-11.8,32.29-27.12h-32.25ZM48.16,82.86c-16.49,0-29.91-12.94-29.91-28.84,0-13.35,9.56-24.9,22.69-28v28c0,3.92,3.26,7.12,7.27,7.12h28.95c-3.3,12.58-15.24,21.72-29,21.72Z"/>
</svg>